<?xml version="1.0" encoding="UTF-8"?>
<svg xmlns="http://www.w3.org/2000/svg" width="865.76" height="682.89" viewBox="0 0 865.76 682.89">
  <path d="M565.68,164.23s-8-18.65-10.06-33.71a2.24,2.24,0,0,1,2-2.52c9.46-.7,45.64-3.09,66.94-.37a1.94,1.94,0,0,1,1.43,1,261,261,0,0,1,24.12,62.09,1.94,1.94,0,0,1-1.57,2.38,194.7,194.7,0,0,1-27.88,2.17Z" fill="#1c1c1c"></path>
  <path d="M620.58,195.73l-.12-.07-55.17-31.07-.07-.16c-.08-.19-8.05-18.89-10.09-33.85a2.65,2.65,0,0,1,.58-2.07,2.77,2.77,0,0,1,1.92-1c10.38-.77,45.87-3.07,67-.36a2.4,2.4,0,0,1,1.79,1.21,261,261,0,0,1,24.17,62.21,2.43,2.43,0,0,1-2,3,197.39,197.39,0,0,1-28,2.18Zm-54.51-31.85,54.76,30.84a193.17,193.17,0,0,0,27.68-2.16,1.37,1.37,0,0,0,1-.62,1.39,1.39,0,0,0,.2-1.14,260,260,0,0,0-24.07-62,1.41,1.41,0,0,0-1.05-.71c-21.08-2.7-56.49-.4-66.84.37a1.74,1.74,0,0,0-1.23.64,1.68,1.68,0,0,0-.36,1.31C558.05,144.55,565.3,162.05,566.07,163.88Z" fill="#231f20"></path>
  <path d="M567.61,643.31s-11,11.74-22.8,15.75c0,0-10.33,3.37-5.91,8.22,0,0,22.56,3.16,55.24.42,0,0,12.86.63,3.8-16.65L585.5,642S580.3,638.74,567.61,643.31Z" fill="#f1b613"></path>
  <path d="M567.72,669.31a235.2,235.2,0,0,1-28.89-1.53l-.17,0-.12-.13a3.75,3.75,0,0,1-1.13-3.58c.88-3.35,7-5.37,7.24-5.46,11.55-3.91,22.49-15.5,22.6-15.61l.08-.09.11,0c12.77-4.6,18.1-1.42,18.32-1.28l12.57,9.15,0,.1c3.42,6.53,4.18,11.36,2.26,14.36-2,3.21-6.34,3-6.52,3C584.32,669,575.4,669.31,567.72,669.31Zm-28.56-2.5c2.2.29,24.22,3,54.94.39.11,0,4,.15,5.71-2.57s.89-7.21-2.26-13.25l-12.35-9s-5.15-3-17.31,1.36c-1,1.1-11.68,12-22.92,15.79-.07,0-5.85,1.94-6.59,4.77A2.67,2.67,0,0,0,539.16,666.81Z" fill="#231f20"></path>
  <path d="M643.75,439a67.74,67.74,0,0,0-6.84,3.81l6.15,21.72,4.42,4.42a233.28,233.28,0,0,1,27.29,11,36.28,36.28,0,0,0,7.08,2.42,4.37,4.37,0,0,0,5.11-5.27c-.74-3.28-2.78-8.15-8-14.57,0,0-15.06-16.5-32.64-23.66A3.16,3.16,0,0,0,643.75,439Z" fill="#f1b613"></path>
  <path d="M682.73,483a4.66,4.66,0,0,1-1-.1,36.72,36.72,0,0,1-7.19-2.46,234.62,234.62,0,0,0-27.23-11l-.12,0-4.59-4.6,0-.12-6.26-22.08.31-.2a68.64,68.64,0,0,1,6.9-3.84,3.65,3.65,0,0,1,3-.11c17.48,7.12,32.66,23.61,32.81,23.78,4.41,5.42,7.14,10.4,8.13,14.8a4.92,4.92,0,0,1-1.29,4.52A4.8,4.8,0,0,1,682.73,483Zm-35-14.48a236.37,236.37,0,0,1,27.24,11,35.87,35.87,0,0,0,7,2.38,3.74,3.74,0,0,0,3.49-1.07,3.89,3.89,0,0,0,1-3.6c-.65-2.92-2.56-7.79-7.9-14.37-.13-.14-15.17-16.47-32.44-23.51a2.67,2.67,0,0,0-2.16.09h0a66.24,66.24,0,0,0-6.48,3.58l6,21.24Z" fill="#231f20"></path>
  <path d="M476.78,496.11s1.82,9.13,12.47,2.65c0,0,15.27-9.21,22.18-10.37L511,468l-8.36-6.23-19.29-5S472.8,484.82,476.78,496.11Z" fill="#1c1c1c"></path>
  <path d="M482.58,501.59a6.26,6.26,0,0,1-2.54-.51,7.13,7.13,0,0,1-3.74-4.83c-4-11.36,6.15-38.56,6.58-39.71l.16-.42,19.9,5.2,8.55,6.37.45,21.13-.43.07c-6.74,1.12-21.85,10.21-22,10.3A13.8,13.8,0,0,1,482.58,501.59Zm1.08-44.28c-1.28,3.55-10,28.39-6.41,38.63l0,.07a6.27,6.27,0,0,0,3.18,4.16c2.14.93,5,.31,8.54-1.83.62-.38,14.84-8.93,21.93-10.36l-.42-19.78-8.08-6Z" fill="#231f20"></path>
  <path d="M502.64,461.72s-4.64,24.67,13.71,28.67l10.54-4.21-6.33-27-11.8-6.75Z" fill="#fff"></path>
  <path d="M516.39,490.91l-.15,0c-18.6-4.06-14.14-29-14.09-29.25l.07-.19,6.38-9.67,12.4,7.09,0,.21,6.42,27.41Zm-13.27-29c-.29,1.67-3.73,24.13,13.18,28l10-4-6.18-26.36-11.21-6.4Z" fill="#231f20"></path>
  <path d="M518.24,465.72s-5.06,25.73,1.48,38.16l43.43,98.89s17.49,32.48,4.46,40.54c0,0,0,.09,0,.08.9-.14,3.83-.18,5.42,5.13,0,0,5.9,12.86,24.88,2.53a176.23,176.23,0,0,1-10.12-51.24s-2.53-70.63-15.6-86.44l-24.87-32.12S525.41,471,518.24,465.72Z" fill="#fff"></path>
  <path d="M584.69,655.57a15,15,0,0,1-4.78-.75,12.55,12.55,0,0,1-7.3-6.1c-1.51-5-4.12-5-4.89-4.83l-.41.07-.33-.81.37-.27c12.48-7.71-4.47-39.56-4.64-39.88l-43.45-98.91c-6.53-12.42-1.72-37.41-1.51-38.46l.15-.78.64.47c7.05,5.18,28.81,15.38,29,15.48l.1.05,24.94,32.22c13,15.75,15.6,83.83,15.71,86.73a177.72,177.72,0,0,0,10.08,51.06l.17.41-.39.22C593.18,654.2,588.67,655.57,584.69,655.57Zm-11.15-7.2a11.87,11.87,0,0,0,6.7,5.51c4.64,1.53,10.38.5,17.07-3.07a180.49,180.49,0,0,1-10-51c0-.71-2.68-70.65-15.49-86.15l-24.8-32c-1.82-.85-21-9.86-28.44-15.06-.76,4.36-4.18,26.12,1.57,37.06l43.45,98.91c.68,1.27,16.55,31.1,5.37,40.38,1.41.29,3.37,1.46,4.56,5.43Z" fill="#231f20"></path>
  <path d="M636.91,442.82a77,77,0,0,0-8.83,5.92s-.93,9.65-.82,10.11S637.37,468,637.37,468s6-.7,10.11.93c0,0-2.56-4.3,1-7.67,0,0,6.74-6.85,1.86-11.62A48.5,48.5,0,0,0,636.91,442.82Z" fill="#fff"></path>
  <path d="M648.65,470l-1.36-.54c-3.9-1.56-9.8-.91-9.86-.9l-.22,0-.17-.15c-10.11-8.81-10.21-9.24-10.26-9.43-.12-.47.45-6.64.8-10.27l0-.22.17-.13a81.26,81.26,0,0,1,8.89-6l.2-.11.21.08a48.68,48.68,0,0,1,13.62,6.93,6,6,0,0,1,2,4.4c0,4-3.62,7.8-3.77,8-3.27,3.06-1.07,6.9-1,7.06Zm-8.2-2.59a22.38,22.38,0,0,1,6.11.75,6.5,6.5,0,0,1,1.62-7.2s3.51-3.62,3.47-7.23A5.05,5.05,0,0,0,650,450,48.81,48.81,0,0,0,637,443.37a79.32,79.32,0,0,0-8.41,5.64c-.33,3.45-.8,8.79-.8,9.67.69.81,6.23,5.72,9.79,8.83A28.22,28.22,0,0,1,640.45,467.37Z" fill="#231f20"></path>
  <path d="M614.38,164.94a.48.48,0,0,1-.46-.31c-3.2-8-7.73-12.95-13.48-14.83-8.53-2.78-16.91,2.37-17,2.42a.5.5,0,0,1-.69-.16.51.51,0,0,1,.16-.69c.36-.22,8.85-5.44,17.83-2.52,6,2,10.79,7.15,14.11,15.41a.5.5,0,0,1-.28.65A.58.58,0,0,1,614.38,164.94Z" fill="#231f20"></path>
  <path d="M683.15,314.38l-19,9.76c-19.05,7-23-1.68-23-1.68-6.89,2.72-10.91-5.88-10.91-5.88-5.45-2.3-16.07-13.21-16.07-13.21l.14,16.51c-.57,16.36,8,41.19,8,41.19,4.3,17.21-1.29,35.87-1.29,35.87-3.3,10.77,4,25.54,4,25.54,2,4.45,2.34,13.63,2.37,19.57A26.2,26.2,0,0,0,630,453.32c4.69,9.62,12.49,24.85,12.49,24.85-4.45,8.75-34.44,18.8-34.44,18.8-17.51,6-26.26,12-26.26,12-11.63,7.18-16.65,4.88-16.65,4.88-13.8-1.9-17.21-26.82-17.83-32.65-.08-.77-.11-1.21-.11-1.21-2.15-15.65-6-21.53-6-21.53-7.89-17.51-5.59-36.45-5.59-36.45l-6.14,10A102.73,102.73,0,0,1,507.06,458l-.17.14c-8.72,7.15-16.62,12.33-16.62,12.33-15.79,11.05-13.49,25.69-13.49,25.69-12.2-23.54,11.77-60,11.77-60,10.47-18.23,16.21-39.32,16.21-39.32,3.73-18.23,9.33-25.55,9.33-25.55l16.5-35.16c4.57-11.9,6.32-21.26,6.81-28.12a40.89,40.89,0,0,0-3.06-18.27c-3.57-8.84-3.89-19.91-3.89-19.91-.86-11.34-11.77-16.65-11.77-16.65-12.48-5.74-14.92-13.2-14.92-13.2-3.45-6.6-8-8.75-8-8.75-9.76-3.59-13.2-14.5-13.2-14.5-2-10.62-13.21-18.08-13.21-18.08-5.74-3.73-7.75-14.5-7.75-14.5-4.59-14.35-17.07-26.69-17.07-26.69-7-7.47,4.59-31.86,4.59-31.86,12.05-23.82,17.37-24.11,17.37-24.11l17.93,44.63a122.07,122.07,0,0,0,16.94,33.15c25.57,30.28,34.06,33.9,33.73,33.57a18.48,18.48,0,0,0,6.56,4.59,10.43,10.43,0,0,0,4.46.67c5.06-.29,13.64,2,13.64,2L593,230.62,611,246.52l12.3,14.22c13.28,7.69,11.58,11.36,11.58,11.36l7.89,7.43L669,262.11C666.19,290.22,683.15,314.38,683.15,314.38Z" fill="#1c1c1c"></path>
  <path d="M567.57,514.76a7,7,0,0,1-2.52-.37c-13.86-2-17.43-25.82-18.19-33.09-.09-.78-.12-1.23-.12-1.23-2.1-15.28-5.91-21.23-6-21.29-6.36-14.09-6.17-29.22-5.84-34.68l-5,8.25a103,103,0,0,1-22.53,26l-.17.14c-8.64,7.08-16.59,12.31-16.67,12.36-15.31,10.72-13.29,25.05-13.27,25.19l.47,3-1.41-2.71c-12.19-23.53,11.56-60.13,11.8-60.5,10.3-17.93,16.09-39,16.15-39.17,3.59-17.58,8.86-25,9.38-25.68l16.48-35.11c3.88-10.12,6.16-19.54,6.76-27.94a40.23,40.23,0,0,0-3-18.05c-3.56-8.83-3.92-20-3.93-20.09-.83-10.88-11.38-16.16-11.49-16.21-12.52-5.76-15.07-13.18-15.18-13.49-3.28-6.28-7.73-8.44-7.77-8.46-9.84-3.62-13.32-14.34-13.47-14.8-2-10.34-12.89-17.74-13-17.82-5.85-3.8-7.89-14.37-8-14.82-4.49-14-16.81-26.3-16.93-26.43-7.2-7.63,4-31.42,4.49-32.43C460.68,101.53,466.19,101,466.42,101l.36,0,18.07,45a122.94,122.94,0,0,0,16.86,33c25.11,29.72,33.38,33.38,33.45,33.41l-.15.45h0l.37-.35.21.21h0a18,18,0,0,0,6.19,4.26,10,10,0,0,0,4.25.63c5.09-.29,13.43,1.94,13.79,2l33.44,10.59.08.07,17.92,15.89,12.29,14.21c11.38,6.61,12,10.4,11.81,11.58l7.4,7,26.8-17.78-.11,1.05c-2.73,27.6,13.92,51.69,14.09,51.93l.33.47-19.56,10c-17.13,6.28-22.37.21-23.46-1.51-6.43,2.19-10.41-4.89-11-6.11-4.66-2.06-12.57-9.73-15.2-12.36l.13,15.27c-.56,16.1,7.92,40.78,8,41,4.3,17.19-1.23,36-1.28,36.18-3.21,10.46,3.91,25,4,25.18,1.94,4.43,2.39,13.2,2.42,19.79a25.72,25.72,0,0,0,2.6,11.05c4.64,9.51,12.41,24.69,12.49,24.84l.12.23-.12.22c-4.49,8.84-33.5,18.64-34.73,19.05-17.23,5.93-26,11.93-26.14,12C574.94,513.86,570.21,514.76,567.57,514.76Zm-31.18-94.93-.28,2.29c0,.18-2.18,19,5.56,36.18.12.17,3.92,6.09,6.07,21.67,0,0,0,.47.11,1.23.53,5.05,3.87,30.35,17.4,32.21l.14,0c.05,0,5,2,16.18-4.85.07-.05,9-6.13,26.36-12.11.3-.1,29.34-9.9,34-18.33-1-2-8.05-15.75-12.38-24.62a26.83,26.83,0,0,1-2.7-11.48c0-5.32-.37-14.9-2.32-19.38-.3-.59-7.36-15.05-4-25.89.05-.18,5.5-18.72,1.28-35.6-.07-.21-8.62-25.06-8-41.33l-.15-17.73.87.89c.1.11,10.61,10.86,15.9,13.09l.18.08.08.17c.16.34,3.92,8.15,10.27,5.63l.45-.17.19.43c0,.08,4.06,8.12,22.38,1.42l18.49-9.48c-2.3-3.49-16.12-25.7-14-51.09l-25.71,17.07-8.45-7.95.15-.33s1.1-3.49-11.37-10.72l-.13-.1-12.3-14.23-17.8-15.77-33.21-10.52c-.07,0-8.54-2.25-13.46-2a10.59,10.59,0,0,1-4.68-.71,18.84,18.84,0,0,1-6.68-4.65c-2.16-.91-12-7.83-33.8-33.65a123.11,123.11,0,0,1-17-33.31l-17.76-44.18c-1.3.57-6.63,4-16.63,23.73-.1.23-11.39,24.15-4.67,31.29.11.11,12.61,12.58,17.19,26.88,0,.17,2,10.66,7.55,14.23.47.31,11.39,7.7,13.42,18.41,0,.05,3.48,10.66,12.88,14.12.24.1,4.83,2.31,8.31,9,.06.15,2.59,7.41,14.69,13,.12.06,11.19,5.57,12.06,17.06,0,.13.36,11.11,3.86,19.77A41.45,41.45,0,0,1,537.9,308c-.61,8.5-2.91,18-6.84,28.26l-16.57,35.28c-.06.08-5.58,7.47-9.24,25.35-.06.24-5.88,21.39-16.27,39.47-.24.37-22.2,34.23-12.8,57.26.13-4.76,1.88-15.27,13.8-23.62.09-.06,8-5.26,16.59-12.3l.18-.15a102.09,102.09,0,0,0,22.3-25.73Z" fill="#231f20"></path>
  <path d="M445.19,54.13s-7.66-.13-7,7.79c0,0,.41,6.16-4.37,7.93l4.51,3.56a21.31,21.31,0,0,0,2.39-10.32,7.51,7.51,0,0,1,1.9-5.58,5.65,5.65,0,0,1,4.05-1.87l-.27-2.87Z" fill="#1c1c1c"></path>
  <path d="M438.5,74.16l-5.67-4.46.84-.32c4.37-1.62,4.05-7.36,4-7.42a7.55,7.55,0,0,1,1.72-6A8.25,8.25,0,0,1,445,53.64l1.85-2.06.43,4.54-.54,0A5.13,5.13,0,0,0,443,57.85a7.05,7.05,0,0,0-1.78,5.21,21.58,21.58,0,0,1-2.44,10.59ZM434.8,70l3.38,2.67a20.76,20.76,0,0,0,2.06-9.53,8,8,0,0,1,2-5.94,6.15,6.15,0,0,1,3.86-2L446,54l-.62.68h-.23a7.47,7.47,0,0,0-5,2,6.58,6.58,0,0,0-1.45,5.24C438.72,62,439.05,67.75,434.8,70Z" fill="#231f20"></path>
  <path d="M342.6,662.28s-2.28,6.47,6.86,7.17l74.59-1a1.87,1.87,0,0,0,1.84-1.94h0l-62.11-8.78Z" fill="#231f20"></path>
  <path d="M168.53,665.4s-.49,2.8,3.43,3.08c0,0,29.48.91,42.16-.28,0,0,1.26-.21.91-2.59l-23.32-5.18S168.74,665.33,168.53,665.4Z" fill="#231f20"></path>
  <path d="M383.78,635.61s15.5,18.18,30.5,20.16c10.19,2.2,11.61,10.76,11.61,10.76l-48.19.92c-5.89.2-9.46-1.15-11.05-2a17.33,17.33,0,0,0-4.59-1.58c-7.3-1.43-19.46-1.63-19.46-1.63,0-6.36,4.81-15.21,4.81-15.21l16.06-6.35,16.19-7.21Z" fill="#fff"></path>
  <path d="M376.53,668a22.18,22.18,0,0,1-10.11-2A16.8,16.8,0,0,0,362,664.4c-7.17-1.4-19.25-1.61-19.37-1.62h-.49v-.5c0-6.42,4.67-15.08,4.87-15.45l.09-.16,16.23-6.42L379.67,633l4.49,2.32c.16.18,15.55,18.06,30.19,20,10.44,2.24,12,11.08,12,11.17l.1.57-48.77.93Zm-33.42-6.17c2.37.05,12.63.36,19,1.62a18.12,18.12,0,0,1,4.73,1.62c1.56.8,5,2.1,10.8,1.91l47.59-.91c-.51-1.91-2.76-8-11.09-9.78-14.64-1.93-29.45-18.79-30.71-20.25l-3.83-1.94-16,7.1-15.92,6.3C347.15,648.65,343.32,656.13,343.11,661.8Z" fill="#231f20"></path>
  <path d="M170.63,650.91s-3.5,7-2.1,14.49c0,0,29.69,2.66,46.5.21,0,0,.42-4.2-5.88-9.59,0,0-5.51-5.11-6.26-10.57l0-8.27-8.26-3.36-14,6.23Z" fill="#fff"></path>
  <path d="M196.68,667.14c-14.1,0-28-1.22-28.2-1.24l-.38,0-.06-.38c-1.42-7.57,2-14.52,2.14-14.81l.08-.11,10.18-11,14.2-6.32,8.77,3.57,0,8.61c.71,5.15,6,10.15,6.1,10.2,6.41,5.49,6,9.83,6,10l0,.39-.39.06A135,135,0,0,1,196.68,667.14ZM169,664.94c3.49.29,30,2.4,45.57.24-.09-1.12-.78-4.57-5.7-8.78-.24-.23-5.66-5.31-6.43-10.89l0-8-7.75-3.15-13.72,6.11-9.89,10.72C170.72,651.88,167.84,658.21,169,664.94Z" fill="#231f20"></path>
  <path d="M349.07,624.5l-.34,12.83a51.37,51.37,0,0,1,30.4-9.12l-1-14.52S364.61,621.79,349.07,624.5Z" fill="#fff"></path>
  <path d="M348.2,638.36l.38-14.29.4-.06c15.27-2.66,28.75-10.67,28.88-10.75l.7-.42,1.11,15.89-.56,0c-17.17-.67-29.95,8.92-30.08,9Zm1.36-13.44-.3,11.43c3.1-2.08,14.56-9.06,29.34-8.65l-.92-13.18C374.72,616.18,362.85,622.52,349.56,624.92Z" fill="#231f20"></path>
  <path d="M188.3,609.59l-8.68,19.62s14.15-.26,26.57,6.95l4.69-10.68-7.38-16.67Z" fill="#fff"></path>
  <path d="M206.42,636.87l-.48-.28c-12.15-7.05-26.18-6.87-26.31-6.88l-.78,0L188,609.11l15.85-.82,7.6,17.19Zm-26-8.15c3.1.07,15,.75,25.57,6.73l4.37-10-7.15-16.15-14.54.74Z" fill="#231f20"></path>
  <path d="M209.09,522s39.55,2.92,98.14-39.54c0,0,22.84-22.31,29-26.34,0,0,40.14-39.58,41-51.5l-2.07-15.41L343,362.3,299.16,340l-19.88,39.5L201.35,488.87S188.62,512.33,209.09,522Z" fill="#1c1c1c"></path>
  <path d="M210.52,522.49c-.93,0-1.42,0-1.47,0l-.17-.05c-5.59-2.63-9.27-6.53-10.93-11.58-3.39-10.32,2.7-21.72,3-22.2l78-109.43,20.07-39.88,44.35,22.59,32.39,27,2.1,15.65v.06c-.9,12-39.54,50.2-41.18,51.82l-.08.06c-6.07,4-28.72,26.05-28.95,26.27C255.7,520.38,218.25,522.49,210.52,522.49Zm-1.3-1c2.14.11,41.31,1.42,97.71-39.46.88-.86,22.79-22.24,29-26.32,1.38-1.37,39.88-39.59,40.85-51.1l-2-15.16-32.05-26.71-43.31-22.05-19.66,39.05-78,109.44c0,.06-6.1,11.46-2.85,21.36C200.46,515.28,203.93,519,209.22,521.47Z" fill="#231f20"></path>
  <path d="M240.64,462.36s-3.38,34.45-21.62,78.7c0,0-14.24,33-31,65.15a3,3,0,0,0,.69,3.65c5.4,4.67,22.17,18.32,36.91,21.4a3,3,0,0,0,3-1.14c6.34-8.48,38.11-52.91,59-117.43,0,0,15.2-58.44,17.23-92.22,0,0,18.91,19.59,40.53,61.82,0,0-12.16,119.06-10.63,142.84a1.8,1.8,0,0,0,1.89,1.68c5.2-.27,21.53-2,41.51-13.12l13.17-123s4.39-28.71-1.69-41.21c0,0-16.21-39.86-33.1-68.23l-44.25-40.2-14.19-4.39L242.33,450.53Z" fill="#f1b613"></path>
  <path d="M226.2,631.82a3.23,3.23,0,0,1-.69-.07c-15-3.14-32.21-17.26-37.13-21.52a3.47,3.47,0,0,1-.81-4.25c16.56-31.75,30.85-64.79,31-65.12,18-43.65,21.55-78.21,21.58-78.55v0l1.74-12L297.8,336.09l14.79,4.63L356.89,381l0,.06c16.72,28.08,33,67.9,33.14,68.3,6.06,12.47,1.9,40.3,1.72,41.48L378.59,614l-.23.13c-20.29,11.27-37.06,12.94-41.72,13.18a2.3,2.3,0,0,1-2.41-2.15c-1.5-23.17,10.12-138,10.61-142.78C326,445.6,309,425.86,305.24,421.67c-2.28,33.61-17,90.57-17.17,91.14C267.12,577.5,235.18,622.13,229,630.41A3.46,3.46,0,0,1,226.2,631.82Zm14.93-169.4c-.08.78-3.71,35.31-21.65,78.83-.15.34-14.44,33.41-31,65.19a2.49,2.49,0,0,0,.57,3c4.87,4.21,21.92,18.2,36.68,21.29a2.47,2.47,0,0,0,2.47-.95c6.18-8.27,38-52.77,58.93-117.29.15-.55,15.21-58.75,17.21-92.09l.07-1.14.79.82c.19.2,19.21,20.13,40.62,61.94l.07.13,0,.15c-.12,1.19-12.14,119.29-10.63,142.76a1.32,1.32,0,0,0,1.37,1.21c4.58-.24,21.06-1.88,41.06-12.93l13.15-122.7c0-.31,4.3-28.73-1.65-40.94-.17-.43-16.38-40.12-33-68.13L312,341.53l-13.68-4.23L242.81,450.68Z" fill="#231f20"></path>
  <path d="M304.82,421h-.07a.51.51,0,0,1-.43-.57c.26-1.9,6.43-46.67,7.11-49.37a.48.48,0,0,1,.6-.36.51.51,0,0,1,.37.6c-.66,2.65-7,48.8-7.09,49.27A.5.5,0,0,1,304.82,421Z" fill="#231f20"></path>
  <path d="M357.85,505.76a.5.5,0,0,1-.49-.43,14,14,0,0,1,1.43-8.63l.75-1.42a.9.9,0,0,0,0-.83.89.89,0,0,0-.67-.49l-4.42-.71a1.9,1.9,0,0,1-1.32-2.89l1.4-2.27a5.86,5.86,0,0,0,.27-5.72l-15.95-32.2a6.15,6.15,0,0,0-1.68-2.05c-7.92-6.35-23.36-32.7-24-33.82a.5.5,0,1,1,.86-.5c.16.27,16,27.3,23.77,33.54a7.08,7.08,0,0,1,2,2.39l15.95,32.19a6.85,6.85,0,0,1-.32,6.69l-1.4,2.27a.88.88,0,0,0-.06.86.91.91,0,0,0,.69.52L359,493a1.91,1.91,0,0,1,1.38,2.77l-.74,1.42a12.89,12.89,0,0,0-1.33,8,.51.51,0,0,1-.42.57Z" fill="#231f20"></path>
  <path d="M345.35,615.54a.5.5,0,0,1-.5-.47c-1.67-23.76,11.7-104.69,11.83-105.5a.5.5,0,0,1,.58-.42.51.51,0,0,1,.41.58c-.14.81-13.48,81.62-11.82,105.27a.5.5,0,0,1-.46.54Z" fill="#231f20"></path>
  <path d="M347.41,647.07l1.32-9.74s12.87-10,30.4-9.12l4.65,7.4s-7.66-.4-11.6,11.34a8.9,8.9,0,0,1-3.13,4.37c-1.95,1.39-5,2.33-9.47.49Z" fill="#1c1c1c"></path>
  <path d="M364.24,653.33a12.69,12.69,0,0,1-4.85-1.06l-12.53-4.88,1.4-10.33.16-.12c.13-.1,13.22-10.11,30.74-9.23l.26,0,5.3,8.42-1,0c-.3,0-7.34-.2-11.11,11a9.24,9.24,0,0,1-3.31,4.61A8.63,8.63,0,0,1,364.24,653.33ZM348,646.75l11.8,4.59c3.54,1.46,6.56,1.32,9-.43a8.21,8.21,0,0,0,2.95-4.12c3.27-9.71,9-11.37,11.21-11.64l-4.06-6.45c-16-.71-28.13,7.79-29.65,8.91Z" fill="#231f20"></path>
  <path d="M179.62,629.21l-8.77,21.71s9.38,2.17,12.85-7.56c0,0,1.3-6.22,10.63-5.44a9.18,9.18,0,0,1,7.35,4.73,18.2,18.2,0,0,1,1.21,2.8l3.3-9.29A56.26,56.26,0,0,0,179.62,629.21Z" fill="#1c1c1c"></path>
  <path d="M173,651.61a10.81,10.81,0,0,1-2.26-.21l-.57-.13,9.11-22.56h.34a57.38,57.38,0,0,1,26.83,7l.35.21-3.92,11-.46-1.36a17.7,17.7,0,0,0-1.18-2.72,8.64,8.64,0,0,0-7-4.47c-8.74-.71-10,4.81-10.1,5.05C181.67,650.54,176.13,651.61,173,651.61Zm-1.45-1.08c2,.29,8.85.58,11.68-7.33,0,0,1.49-6.58,11.14-5.77a9.63,9.63,0,0,1,7.75,5c.27.51.52,1,.76,1.59l2.7-7.62A56.91,56.91,0,0,0,180,629.71Z" fill="#231f20"></path>
  <path d="M376.89,404.45a13.28,13.28,0,0,1-.68,1.69c1.63-15.57-14.28-22.42-14.28-22.42l-22.87-10.89c-1-.49-2.06-.93-3.1-1.37-28.48-11.72-37.11-28.63-37.11-28.63l1.28,20.79c1.39,41-24.16,65.05-24.16,65.05-12,15.56-45.31,40.77-45.31,40.77C210.22,483.62,203,498,203,498c-9.52,16.38,5.7,23.81,5.7,23.81-17.52-3.66-14-26.13-10.85-37.89a64.26,64.26,0,0,1,3.7-10A38.32,38.32,0,0,0,204,451c-2.91-16.49,5-25,5-25,3.36-4,4.37-9,4.58-12.87,0-.65,0-1.26,0-1.84a18.2,18.2,0,0,0-1.19-6.14c-3.72-10.11,1.8-19,1.8-19,3.71-7.08,2.44-16.37,2.44-16.37C201,366.42,200.73,353.83,201.22,349a5.13,5.13,0,0,0-1-3.61l-3.43-4.53a5.41,5.41,0,0,1-1.12-3.21L195,307a14.24,14.24,0,0,0-.65-4c-5.43-17.52-.55-28.79-.55-28.79,5-17.31,29.2-44.66,29.2-44.66l34.71-11.84c18.84-4.21,26.46-14.71,26.46-14.71,14.57-18,23.14-26.33,26.67-29.51a7.8,7.8,0,0,0,2.39-4c2.58-11.21,8.4-16.54,11.34-18.59a9.37,9.37,0,0,0,3-3.45L351,101.09c26.61,28.81,23.7,51.35,23.7,51.35-.34,13.47-11.85,23.81-11.85,23.81a63.33,63.33,0,0,0-9.94,10.05,61.51,61.51,0,0,0-6.51,9.85C341.67,205,332.3,212,332.3,212c-5.8,2.32-5.22,7-5.22,7,.23,5.81-6.39,8.25-6.39,8.25a6.27,6.27,0,0,0-4.87,5.88,5.19,5.19,0,0,1-.28,1.41c-1.27,3.73-4.79,7.59-7,9.72a5.47,5.47,0,0,0-1.65,4.11c.23,6.3-1.33,9.89-1.33,9.89-2,13.82,7.55,25.79,7.55,25.79a38.75,38.75,0,0,1,10.16,20.72c1.84,11.25,8.89,22.37,8.89,22.37,9.87,11.51,21.37,32.53,21.37,32.53,2.79,12,10,17.31,10,17.31l8,7.19A19,19,0,0,1,376.89,404.45Z" fill="#1c1c1c"></path>
  <path d="M212.49,523.14l-3.89-.82A15.62,15.62,0,0,1,198,515.16c-5.46-8.87-2.72-23.45-.61-31.35a62.56,62.56,0,0,1,3.73-10.06,38.08,38.08,0,0,0,2.35-22.66c-2.92-16.58,4.78-25.08,5.11-25.43,3.33-4,4.26-9,4.45-12.56,0-.64,0-1.24,0-1.8a17.68,17.68,0,0,0-1.16-6c-3.76-10.22,1.79-19.34,1.84-19.43,3.19-6.07,2.59-14,2.41-15.7-15.5-3.53-16-16-15.43-21.22a4.64,4.64,0,0,0-.91-3.26l-3.43-4.52a6.09,6.09,0,0,1-1.22-3.51l-.62-30.7a14,14,0,0,0-.63-3.87c-5.42-17.49-.73-28.67-.53-29.13,5-17.16,29.05-44.51,29.29-44.79l.09-.1.12,0,34.71-11.84c18.46-4.13,26.14-14.43,26.22-14.54,14.4-17.76,22.93-26.16,26.74-29.58a7.29,7.29,0,0,0,2.24-3.78c2.58-11.23,8.33-16.65,11.53-18.89a8.76,8.76,0,0,0,2.82-3.27l23.74-46.93.49.53c26.46,28.65,23.86,51.52,23.83,51.75-.34,13.49-11.9,24-12,24.12a61.6,61.6,0,0,0-9.89,10,60.94,60.94,0,0,0-6.46,9.76c-4.73,8.88-14.14,16-14.24,16.05l-.11.06c-5.36,2.14-4.94,6.27-4.92,6.45.25,6.14-6.64,8.75-6.71,8.78a5.79,5.79,0,0,0-4.54,5.45,6.1,6.1,0,0,1-.31,1.54c-1.32,3.87-5,7.87-7.09,9.91a5,5,0,0,0-1.5,3.73,25.26,25.26,0,0,1-1.35,10c-1.88,13.43,7.37,25.23,7.46,25.35a38.37,38.37,0,0,1,8.31,13.39,39,39,0,0,1,2,7.56c1.8,11,8.74,22.07,8.81,22.19,9.75,11.35,21.28,32.34,21.39,32.55l.05.12c2.71,11.66,9.73,17,9.8,17l8,7.22a19.41,19.41,0,0,1,5.48,20.81h0a16,16,0,0,1-.71,1.75l-1.23,2.41.28-2.69c1.57-15-13.83-21.84-14-21.91l-22.88-10.89c-1.07-.51-2.16-1-3.09-1.35-23-9.46-33.2-22.46-36.29-27.13l1.16,18.79c1.38,40.77-24.06,65.2-24.32,65.44-11.82,15.38-45,40.56-45.35,40.81-20.12,14-27.43,28.26-27.5,28.4-2.93,5.05-3.77,9.7-2.52,13.87,1.89,6.22,7.92,9.25,8,9.27ZM223.33,230c-1.59,1.82-24.25,27.88-29,44.36-.07.17-4.76,11.4.55,28.51a14.74,14.74,0,0,1,.67,4.14l.62,30.7a5,5,0,0,0,1,2.92l3.42,4.52a5.67,5.67,0,0,1,1.12,4c-.51,5-.06,17,15,20.22l.35.07,0,.35c.06.39,1.26,9.53-2.49,16.68-.07.12-5.36,8.83-1.77,18.58a18.74,18.74,0,0,1,1.22,6.32c0,.58,0,1.21,0,1.87-.2,3.67-1.17,8.93-4.7,13.16-.09.1-7.71,8.53-4.88,24.56A39.16,39.16,0,0,1,202,474.16a62,62,0,0,0-3.67,9.91c-2.08,7.74-4.77,22,.49,30.57a14.11,14.11,0,0,0,6.72,5.71,16.5,16.5,0,0,1-5.57-7.94c-1.35-4.44-.48-9.37,2.59-14.64.06-.12,7.48-14.65,27.8-28.74.31-.24,33.4-25.33,45.19-40.66.31-.3,25.43-24.44,24.06-64.73l-1.43-23.17,1.09,2.13c.09.17,8.91,16.9,36.86,28.4.93.39,2,.86,3.13,1.38l22.86,10.88c.14.06,14.06,6.22,14.67,19.78a18.45,18.45,0,0,0-5.58-18.5l-8-7.19c-.26-.19-7.32-5.54-10.13-17.5-.69-1.25-11.82-21.35-21.28-32.38-.12-.17-7.17-11.4-9-22.62a36.84,36.84,0,0,0-1.9-7.36,37.63,37.63,0,0,0-8.12-13.09c-.14-.16-9.68-12.33-7.7-26.21l0-.13a24.38,24.38,0,0,0,1.29-9.67,6,6,0,0,1,1.8-4.48c2-2,5.59-5.85,6.85-9.53a4.92,4.92,0,0,0,.25-1.29,6.75,6.75,0,0,1,5.25-6.33s6.22-2.37,6-7.74c0,0-.55-5,5.47-7.43.75-.57,9.46-7.34,13.91-15.68a61.12,61.12,0,0,1,6.56-9.92,62.1,62.1,0,0,1,10-10.14c.08-.07,11.32-10.33,11.65-23.42,0-.28,2.52-22.44-23.08-50.47L328,147.6a9.82,9.82,0,0,1-3.15,3.64c-3.08,2.15-8.62,7.39-11.13,18.3a8.24,8.24,0,0,1-2.54,4.29c-3.79,3.41-12.28,11.76-26.62,29.45-.06.09-7.93,10.69-26.74,14.89Z" fill="#231f20"></path>
  <path d="M182,144.62c-1.74,5.4-13.7,43.13-15.42,62.95a1.44,1.44,0,0,0,1.45,1.56l49.93-.67,26.82-37.19s6.91-22,6.37-35.05a1.44,1.44,0,0,0-1.5-1.37c-8.19.36-49.9,2.47-66.8,8.87A1.43,1.43,0,0,0,182,144.62Z" fill="#1c1c1c"></path>
  <path d="M168,209.63a1.94,1.94,0,0,1-1.94-2.1c1.74-20,14-58.72,15.45-63.06h0a1.88,1.88,0,0,1,1.14-1.21c17-6.43,58.75-8.55,67-8.91a2,2,0,0,1,1.4.51,1.9,1.9,0,0,1,.62,1.34c.54,13-6.32,35-6.39,35.22l-.07.14-27,37.4h-.25l-49.93.67Zm14.46-64.86h0c-1.4,4.34-13.68,42.92-15.4,62.85a.93.93,0,0,0,.95,1l49.68-.66L244.3,171c.45-1.44,6.84-22.39,6.32-34.8a.92.92,0,0,0-.3-.64,1,1,0,0,0-.68-.25c-8.17.36-49.81,2.47-66.64,8.84A.93.93,0,0,0,182.45,144.77Z" fill="#231f20"></path>
  <path d="M286.52,247.25a4.88,4.88,0,0,0-4.4,3.67,7.28,7.28,0,0,0-.25,1.68,37.72,37.72,0,0,1-.34,4.12c-.36,2.44-.78,4.57-1.22,6.4-.32,1.34-.65,2.53-1,3.58-1.62,5.21-3.19,7-3.19,7l-.89,1.11-1,1.3-4.32,5.4-1,1.28-2.69,3.36c-21.38-11.93-52.6-44.45-52.6-44.45.58-.85,1.34-1.86,2.19-3l1-1.28c.9-1.11,1.83-2.24,2.71-3.29l1.05-1.24c1.65-1.93,2.88-3.33,2.88-3.33l34.71-11.83c1.23-.24,2.42-.54,3.55-.86.53-.14,1.06-.3,1.57-.47,1.33-.41,2.56-.86,3.64-1.3l1.5-.63c2.14-.94,3.42-1.67,3.42-1.67C277.73,221,286.52,247.25,286.52,247.25Z" fill="#231f20"></path>
  <rect x="224.83" y="165.33" width="30.36" height="50.02" rx="15.18" transform="translate(-65.69 170.75) rotate(-34.75)" fill="#fff"></rect>
  <path d="M245.63,214.09a15.65,15.65,0,0,1-12.9-6.74L221.52,191.2a15.68,15.68,0,0,1,25.77-17.87l11.2,16.15a15.7,15.7,0,0,1-3.94,21.82h0A15.59,15.59,0,0,1,245.63,214.09Zm-11.26-46.51a14.69,14.69,0,0,0-12,23l11.21,16.15a14.68,14.68,0,1,0,24.12-16.73L246.46,173.9a14.59,14.59,0,0,0-9.44-6.08A14.92,14.92,0,0,0,234.37,167.58Z" fill="#231f20"></path>
  <path d="M224.49,208.77a17.86,17.86,0,0,1,2.4,14.36s9.7,9.18,26.19,8.12c0,0,4.13-6.79-2-14.9l-12-12.1-14.81-1.62-2.87,5.08Z" fill="#fff"></path>
  <path d="M250.47,231.83c-14.93,0-23.83-8.24-23.93-8.33l-.22-.21.09-.29a17.45,17.45,0,0,0-2.23-13.81L220.71,208,224,202.1l15.31,1.67L251.44,216c6.3,8.34,2.11,15.43,2.07,15.51l-.13.22h-.26C252.21,231.8,251.33,231.83,250.47,231.83Zm-23-8.86a36.65,36.65,0,0,0,25.33,7.79c.64-1.22,3.2-7.09-2.09-14.11l-11.8-11.92-14.31-1.56-2.41,4.26,2.64.92.09.13A18.2,18.2,0,0,1,227.45,223Z" fill="#231f20"></path>
  <path d="M233.54,212.1s4.78,12.1,20.08,8.91a24,24,0,0,0-2.53-4.66S240.45,218,233.54,212.1Z" fill="#231f20"></path>
  <path d="M226.89,223.13a26.76,26.76,0,0,0-3.46,6.52S253,259.84,272.9,266.88c0,0-4.52-37.36-14.76-49.06l-5.85-.14s4.52,6.92.79,13.57C253.08,231.25,238.32,233.11,226.89,223.13Z" fill="#f1b613"></path>
  <path d="M273.49,267.62l-.76-.27c-19.83-7-49.36-37.05-49.66-37.35l-.2-.21.08-.29a27.28,27.28,0,0,1,3.53-6.66l.33-.44.41.36c10.32,9,23.57,8.19,25.55,8,3.3-6.23-.86-12.75-.9-12.81l-.52-.8,7,.16.14.17c10.23,11.68,14.7,47.8,14.88,49.33ZM224,229.51c2.65,2.68,29.59,29.54,48.29,36.62-.73-5.49-5.29-37.15-14.39-47.82l-4.74-.11c1.09,2.05,3.48,7.71.36,13.29l-.12.22-.25,0c-.15,0-14.76,1.73-26.17-7.87A26.05,26.05,0,0,0,224,229.51Z" fill="#231f20"></path>
  <path d="M229.19,301.17a.49.49,0,0,1-.4-.2c-12.89-17.56-34.53-26.12-34.75-26.2a.51.51,0,0,1-.28-.65.5.5,0,0,1,.65-.28c.22.08,22.12,8.74,35.18,26.54a.49.49,0,0,1-.11.7A.5.5,0,0,1,229.19,301.17Z" fill="#231f20"></path>
  <path d="M235.93,321.5a.49.49,0,0,1-.48-.36c-2.55-8.68-2.69-23.91-2.7-24.06a.5.5,0,0,1,.5-.51h0a.5.5,0,0,1,.5.5c0,.15.15,15.25,2.66,23.79a.51.51,0,0,1-.34.62Z" fill="#231f20"></path>
  <path d="M225.7,330.91a.48.48,0,0,1-.41-.23.49.49,0,0,1,.14-.69c14.85-9.71,37.4-40.23,37.62-40.53a.5.5,0,1,1,.81.59c-.23.31-22.88,31-37.88,40.78A.57.57,0,0,1,225.7,330.91Z" fill="#231f20"></path>
  <g opacity="0.2">
    <path d="M292.73,289.52s-3.83,7-7.78,10.46c0,0,9.7,27.61,18.3,32.95a1.28,1.28,0,0,0,1.91-1.33C303.91,324.66,298.62,302,292.73,289.52Z"></path>
  </g>
  <g opacity="0.2">
    <path d="M296.68,338.08,214,413.35l-.07-.09c0-.65,0-1.27,0-1.84a18.07,18.07,0,0,0-1.2-6.15c-3.71-10.11,1.8-19,1.8-19,3.56-6.79,2.54-15.61,2.45-16.33a0,0,0,0,1,0,0c.39.46,4.62,4.77,17.73-1a15.9,15.9,0,0,1,8.37-2.08,26.73,26.73,0,0,0,13.36-5.47,58.84,58.84,0,0,1,17.65-10.68s7.44-2.44,11.27-6.16C285.41,344.58,290.87,339.35,296.68,338.08Z"></path>
  </g>
  <path d="M253.08,231.25l-.85,9.92a1.19,1.19,0,0,0,.68,1.18c1.39.64,4.19,2,4.1,2.27s2.49,15.22,2.49,15.22,9,6,13.4,7a39.64,39.64,0,0,0-.81-5.08l-9.54-16.63a1.19,1.19,0,0,1-.16-.62l.23-9a1.16,1.16,0,0,0-.79-1.15Z" fill="#fea595"></path>
  <path d="M273.46,267.54l-.68-.17c-4.47-1.09-13.19-6.87-13.56-7.12l-.18-.12,0-.21c-2-11.48-2.44-14.35-2.49-15.14a27,27,0,0,0-3.82-2,1.7,1.7,0,0,1-1-1.68l.91-10.56L262,233.9a1.67,1.67,0,0,1,1.12,1.63l-.23,9a.77.77,0,0,0,.09.36l9.59,16.75a37.75,37.75,0,0,1,.82,5.16Zm-13.51-8c1.21.79,8.26,5.34,12.37,6.66a32.73,32.73,0,0,0-.7-4.2l-9.51-16.58a1.69,1.69,0,0,1-.22-.88l.23-9a.68.68,0,0,0-.45-.66l-8.14-2.91-.81,9.28a.69.69,0,0,0,.4.68c4.39,2,4.52,2.39,4.38,2.83C257.54,245.62,259,253.94,260,259.54Zm-3.43-15.05a1.28,1.28,0,0,0,0,.19C256.51,244.57,256.52,244.52,256.52,244.49Z" fill="#231f20"></path>
  <path d="M275.26,274.85l-1,1.3c-19.93-10.65-46.76-34.64-54.72-41.93l1.05-1.24C228.44,240.21,255.43,264.35,275.26,274.85Z" fill="#f3c259"></path>
  <path d="M269.9,281.55l-1,1.28c-15.61-9.71-46.44-37.89-53.1-44l1-1.28C223.25,243.48,254.41,272,269.9,281.55Z" fill="#f3c259"></path>
  <path d="M280.31,263.12c-.32,1.34-.65,2.53-1,3.58-2.76-17.06-14.78-43.56-17.65-49.74.53-.14,1.06-.3,1.57-.47C266.13,222.67,276.73,246.13,280.31,263.12Z" fill="#f3c259"></path>
  <path d="M283.2,248.88a5.25,5.25,0,0,0-1.08,2c-3.88-13-12.54-30.48-15.22-35.73l1.5-.63C271.06,219.77,279.11,236,283.2,248.88Z" fill="#f3c259"></path>
  <path d="M293.54,234.73a.5.5,0,0,1-.49-.4c-2.12-9.7-13.13-26.45-13.24-26.62a.5.5,0,0,1,.83-.55c.46.69,11.23,17.07,13.39,27a.5.5,0,0,1-.38.6Z" fill="#231f20"></path>
  <path d="M359.68,37.61l10.06,27,6,34.16,2.18,7.84s7.07-12.33,24.92-8.22L387.34,79.72l-3-19.13L387,27.18a3.77,3.77,0,0,0-3.34-4c-6.68-.76-20.63-.66-24,12.52A3.18,3.18,0,0,0,359.68,37.61Z" fill="#f1b613"></path>
  <path d="M377.8,107.85l-2.5-9-6.05-34.22-10-26.87a3.76,3.76,0,0,1-.12-2.25c3.55-13.74,18.37-13.59,24.58-12.89a4.26,4.26,0,0,1,3.77,4.58l-2.55,33.35,2.92,18.94,16.41,19.66-1.45-.33c-17.26-4-24.09,7.49-24.37,8Zm1.25-84.48c-7.27,0-16.35,2.18-19,12.41a2.74,2.74,0,0,0,.09,1.65l10.06,27,6.06,34.26,1.89,6.76c2-2.74,9.27-10.5,23.41-7.85l-14.7-17.62-3-19.34,2.57-33.46a3.27,3.27,0,0,0-2.9-3.51A40.92,40.92,0,0,0,379.05,23.37Z" fill="#231f20"></path>
  <path d="M384.77,100.39a.49.49,0,0,1-.47-.34L360.54,32a.49.49,0,0,1,.3-.64.51.51,0,0,1,.64.31l23.76,68.07a.51.51,0,0,1-.31.64A.45.45,0,0,1,384.77,100.39Z" fill="#231f20"></path>
  <path d="M378,106.57s-.35,3.59,8.44,3.25A26.33,26.33,0,0,0,400,105.51c3.06-2.06,5.47-4.72,2.84-7.16C402.88,98.35,386.82,93.6,378,106.57Z" fill="#f1b613"></path>
  <path d="M385.24,110.34c-3.43,0-5.78-.65-7-1.93a2.58,2.58,0,0,1-.79-1.89l0-.13.07-.1c9-13.12,25.31-8.47,25.47-8.42l.11,0,.09.08a3.46,3.46,0,0,1,1.28,2.85c-.13,1.6-1.54,3.32-4.18,5.09a26.78,26.78,0,0,1-13.9,4.4Zm-6.77-3.62a1.74,1.74,0,0,0,.55,1c.79.81,2.71,1.73,7.36,1.56a25.69,25.69,0,0,0,13.38-4.23c2.35-1.57,3.64-3.07,3.74-4.34a2.42,2.42,0,0,0-.87-2C401.2,98.42,386.65,94.92,378.47,106.72Z" fill="#231f20"></path>
  <path d="M383,107.69a2.43,2.43,0,0,1-1.88-.82,1.53,1.53,0,0,1-.35-1.52c.71-2.15,6.84-3.89,10.43-4.74a3.53,3.53,0,0,1,2.19.15c.71.29,1.07.71,1.08,1.23,0,1.19-2.14,2.19-2.8,2.47a.5.5,0,0,1-.39-.92c1.13-.48,2.19-1.23,2.19-1.54,0,0-.09-.16-.47-.32a2.6,2.6,0,0,0-1.57-.09c-5.51,1.29-9.32,2.9-9.71,4.07a.55.55,0,0,0,.16.56,1.46,1.46,0,0,0,1.19.47c2.67-.11,11.64-.78,14.85-4.78a5,5,0,0,0,1-4.25.5.5,0,0,1,1-.17,6.07,6.07,0,0,1-1.23,5.05c-3.48,4.32-12.81,5-15.59,5.15Z" fill="#231f20"></path>
  <path d="M368.6,61.65s-7.85-2.1-7.85,7.38c0,0-.24,6.45-8.47,6.84l2.17,4.35s5.91.16,8.24-5.28L367,64.76Z" fill="#1c1c1c"></path>
  <path d="M354.48,80.72h-.34l-2.65-5.3.76,0c7.69-.36,8-6.11,8-6.36,0-3.19.88-5.5,2.6-6.82a7.34,7.34,0,0,1,5.88-1l.6.16L367.41,65l-4.26,10.14C360.81,80.59,355,80.72,354.48,80.72Zm-1.42-4.41,1.7,3.41a8.41,8.41,0,0,0,7.47-5l4.27-10.18L367.84,62a6,6,0,0,0-4.38,1c-1.47,1.13-2.21,3.17-2.21,6.05C361.24,69.12,360.92,75.55,353.06,76.31Z" fill="#231f20"></path>
  <path d="M207.58,199.65a.51.51,0,0,1-.31-.11L197.89,192a10,10,0,0,1-3.7-6.57,37.23,37.23,0,0,1,.18-8.43,21.91,21.91,0,0,1,1.87-6.57c7.1-15,26.3-13.18,26.5-13.16a.49.49,0,0,1,.44.54.5.5,0,0,1-.55.45c-.18,0-18.69-1.78-25.48,12.6a20.5,20.5,0,0,0-1.78,6.27,35,35,0,0,0-.19,8.18,9,9,0,0,0,3.34,5.91l9.38,7.51a.49.49,0,0,1,.07.7A.51.51,0,0,1,207.58,199.65Z" fill="#231f20"></path>
  <path d="M194.57,238a.51.51,0,0,1-.37-.17c-9.66-10.83-5.36-18.61-5.17-18.93l4.86-10a.5.5,0,1,1,.9.44l-4.88,10c-.19.33-4.11,7.54,5,17.8a.5.5,0,0,1-.38.83Z" fill="#231f20"></path>
  <path d="M593,230.62a25.68,25.68,0,0,1-6.33,2.88,94,94,0,0,1-16.43,3.35c-9,.92-11.78-2.92-12.24-7.15-.51-4.59,1.69-9.63,1.69-9.63,8.15-1.19,9.83-12.46,9.83-12.46l21.09-16.78,3.59,4.08c-5.27,6.71-7,17.49-7,17.49C583.44,223.91,593,230.62,593,230.62Z" fill="#fff"></path>
  <path d="M567.72,237.49c-7.65,0-9.8-4.1-10.2-7.74-.51-4.66,1.64-9.67,1.73-9.88l.11-.25.28,0c7.69-1.13,9.39-11.93,9.4-12l0-.2,21.62-17.19,4.18,4.74-.25.33c-5.13,6.53-6.84,17.15-6.85,17.26-3.69,11.09,5.16,17.47,5.54,17.73l.59.42-.59.41a26.4,26.4,0,0,1-6.47,2.94,95,95,0,0,1-16.53,3.37C569.38,237.44,568.52,237.49,567.72,237.49Zm-7.66-17c-.42,1.06-2,5.29-1.55,9.12.58,5.19,4.51,7.45,11.7,6.71A94.5,94.5,0,0,0,586.53,233a28.13,28.13,0,0,0,5.64-2.45c-2-1.73-8.72-8.29-5.37-18.34.05-.35,1.68-10.56,6.78-17.31l-3-3.41L570,207.88C569.73,209.45,567.74,219.17,560.06,220.52Z" fill="#231f20"></path>
  <path d="M569.54,207.61a29.93,29.93,0,0,1-1.62,5.24s7-1.74,11-5.34C579,207.51,573.59,209.1,569.54,207.61Z" fill="#231f20"></path>
  <path d="M586.69,233.5c-7,5.54-23.52,15.2-27.86,17.71a.79.79,0,0,1-1.19-.62c-.46-5.89.29-20.91.29-20.91l.09,0c.46,4.23,3.25,8.07,12.24,7.15A94,94,0,0,0,586.69,233.5Z" fill="#fea595"></path>
  <path d="M558.43,251.82a1.3,1.3,0,0,1-1.29-1.2c-.45-5.84.28-20.81.29-21l0-.54.92.12.13.4c.58,5.19,4.51,7.45,11.7,6.71A94.5,94.5,0,0,0,586.53,233l2.65-.87L587,233.89c-7,5.51-23.13,15-27.92,17.76A1.34,1.34,0,0,1,558.43,251.82Zm-.13-19.12c-.19,4.69-.49,13.66-.16,17.85a.3.3,0,0,0,.15.24.32.32,0,0,0,.29,0c4.32-2.5,17.94-10.47,25.59-16a102.84,102.84,0,0,1-13.86,2.58C562.92,238.11,559.65,235.67,558.3,232.7Z" fill="#231f20"></path>
  <path d="M607,243.05c-4.5,5.73-61.2,44.75-61.2,44.75-9.59-32.2-3-70.06-3-70.06a9.51,9.51,0,0,0,3.74.5,10.27,10.27,0,0,0,1.65-.2l.32-.07s2.37.22,5.1.69c.52.09,1.06.2,1.61.31a23,23,0,0,1,4.5,1.32A20,20,0,0,0,558,229.7c-.85,6.23-.38,20.88-.38,20.88.48,1.19,1.19.63,1.19.63a324.18,324.18,0,0,0,27.86-17.71,30.74,30.74,0,0,0,6.33-2.88l3.27,2.9,1.23,1.1,4.4,3.91,1.24,1.09Z" fill="#231f20"></path>
  <path d="M670.3,284.28l13.57-12.48s16.22-7,14.5-15.75c0,0,1.25-4.37-.47-7.33,0,0,1.87-2.49-2-5.61l3.18-7.41a2.07,2.07,0,0,0-.48-2.32h0a2.06,2.06,0,0,0-3,.19L691,239.05a8.69,8.69,0,0,0-.41-1.55.85.85,0,0,0-1.58,0,26.57,26.57,0,0,1-1.44,2.9,13.62,13.62,0,0,1-5.68,5.19c-1.55.78-4.13,3-6,9a9.85,9.85,0,0,1-3.33,4.75L669,262.11A61.42,61.42,0,0,0,670.3,284.28Z" fill="#fff"></path>
  <path d="M670,285.21l-.21-.81A63,63,0,0,1,668.48,262l0-.2,3.73-2.91a9.3,9.3,0,0,0,3.17-4.5c1.9-6,4.47-8.38,6.29-9.3a13,13,0,0,0,5.48-5,24.38,24.38,0,0,0,1.41-2.85,1.26,1.26,0,0,1,1.27-.82,1.36,1.36,0,0,1,1.24.86,6.46,6.46,0,0,1,.2.63l3.88-4.7a2.56,2.56,0,0,1,1.81-.92,2.53,2.53,0,0,1,1.92.69,2.57,2.57,0,0,1,.6,2.87l-3,7.07c3.11,2.65,2.39,5,2,5.76,1.47,2.85.6,6.62.41,7.35,1.58,8.74-13.36,15.55-14.74,16.16Zm-.58-22.83a62.48,62.48,0,0,0,1.14,21l13.09-12c.16-.07,15.83-7,14.21-15.19l0-.12,0-.12s1.17-4.2-.42-6.94l-.17-.29.2-.26c.06-.08,1.5-2.17-1.94-4.92l-.3-.24,3.33-7.76a1.56,1.56,0,0,0-1.53-2.17,1.51,1.51,0,0,0-1.11.56l-5.24,6.35-.17-1.12a7.63,7.63,0,0,0-.38-1.44.37.37,0,0,0-.33-.22.33.33,0,0,0-.32.21,24.72,24.72,0,0,1-1.47,3,14,14,0,0,1-5.89,5.38c-1.35.69-3.9,2.73-5.79,8.71a10.27,10.27,0,0,1-3.5,5Z" fill="#231f20"></path>
  <path d="M684.65,263.57a.48.48,0,0,1-.36-.15.5.5,0,0,1,0-.71c4.34-4.2.72-10.87.69-10.94a.51.51,0,0,1,0-.42.46.46,0,0,1,.3-.29c5-1.75,5.9-7.81,5.91-7.87a.5.5,0,0,1,1,.14c0,.27-1,6.31-6,8.47.81,1.75,3,7.62-1.12,11.63A.49.49,0,0,1,684.65,263.57Z" fill="#231f20"></path>
  <path d="M696.5,262.48h-.07a5.63,5.63,0,0,1-4.81-6c-.69-1.11-1.43-3.23-.12-4.76a5.72,5.72,0,0,1-2.2-3.74.5.5,0,0,1,.43-.56.52.52,0,0,1,.56.44,5,5,0,0,0,2.25,3.37.5.5,0,0,1,.06.83c-1.8,1.41-.07,4-.06,4a.44.44,0,0,1,.09.31,4.59,4.59,0,0,0,3.94,5.09.5.5,0,0,1,.42.56A.49.49,0,0,1,696.5,262.48Z" fill="#231f20"></path>
  <path d="M679.82,275.49s7.7,32,3.33,38.89c0,0-8.07-10.74-12.85-30.1Z" fill="#1c1c1c"></path>
  <path d="M683.18,315.26l-.43-.58c-.08-.11-8.19-11.05-12.94-30.28l-.07-.29,10.36-9.57.2.83c.32,1.31,7.7,32.28,3.27,39.28Zm-12.33-30.81c4,16.2,10.47,26.38,12.24,29,3.06-7.14-2.44-32.09-3.57-37Z" fill="#231f20"></path>
  <g opacity="0.2">
    <path d="M614.12,303.37l-13.65-10.11S607,314,614.26,319.88Z"></path>
  </g>
  <path d="M536.58,420.47h-.12a.51.51,0,0,1-.36-.61l6.27-25.09c1.9-7.57,3.84-14.12,6-20a49.53,49.53,0,0,0,2.95-19.65,59.49,59.49,0,0,1,1-20.17c.5-2.15.9-4.29,1.19-6.36,2-14.16-1.46-20.23-1.49-20.29a36.13,36.13,0,0,1-4.92-17.34.51.51,0,0,1,.5-.49h0a.5.5,0,0,1,.49.52,36,36,0,0,0,4.78,16.81c.15.26,3.63,6.42,1.62,20.93-.29,2.1-.7,4.27-1.21,6.45a58.42,58.42,0,0,0-1,19.82,50.53,50.53,0,0,1-3,20.1c-2.1,5.88-4,12.4-5.92,19.93l-6.27,25.09A.5.5,0,0,1,536.58,420.47Z" fill="#231f20"></path>
  <path d="M530.05,267.41h0a.5.5,0,0,1-.46-.54c0-.18,1.46-18.39.42-26.89a.5.5,0,0,1,.44-.55.5.5,0,0,1,.56.43c1,8.6-.41,26.91-.42,27.09A.5.5,0,0,1,530.05,267.41Z" fill="#231f20"></path>
  <path d="M593.3,275h-.09a.49.49,0,0,1-.4-.58c4.63-24.42,15.2-30.27,15.65-30.5a.5.5,0,1,1,.46.88c-.1.06-10.6,5.92-15.13,29.8A.5.5,0,0,1,593.3,275Z" fill="#231f20"></path>
  <path d="M667.51,177.59a.47.47,0,0,1-.35-.14,24,24,0,0,0-22.9-6.63.5.5,0,0,1-.63-.32.51.51,0,0,1,.33-.63,25,25,0,0,1,23.91,6.87.51.51,0,0,1,0,.71A.5.5,0,0,1,667.51,177.59Z" fill="#231f20"></path>
  <path d="M547.35,481.25c-16.63-6.58-38-21.42-40.46-23.16l.17-.14a102.73,102.73,0,0,0,22.42-25.86l6.14-10s-2.3,18.94,5.59,36.45c0,0,3.88,5.88,6,21.53C547.24,480,547.27,480.48,547.35,481.25Z" fill="#fea595"></path>
  <path d="M547.94,482l-.77-.3c-16.61-6.58-38.17-21.53-40.57-23.22l-.54-.37.69-.57a102.09,102.09,0,0,0,22.3-25.73l7.34-12-.28,2.29c0,.18-2.18,19,5.56,36.18.12.17,3.92,6.09,6.07,21.67,0,0,0,.47.11,1.23Zm-40.23-24c4.06,2.81,23.56,16.1,39.07,22.42,0-.26,0-.41,0-.41-2.1-15.28-5.91-21.23-6-21.29-6.36-14.09-6.17-29.22-5.84-34.68l-5,8.25A103.11,103.11,0,0,1,507.71,458.06Z" fill="#231f20"></path>
  <path d="M459.68,64.65a10.59,10.59,0,0,1-.63-.91c-1.15-1.87-3.15-5.59-3.14-8.71a.63.63,0,0,0-1-.55c-1.61,1-4,4.31,1.35,14.81a4.4,4.4,0,0,1-1.65,3.31s-1.54,1.88-1,7.67a40.81,40.81,0,0,1,.11,5.53c-.27,5-1.27,13.38-5,13,0,0-17-3.11-15.76-11.42a6.34,6.34,0,0,1,1.44-3.09l8.93-10.8,5.8-16.22,3.58-40.09a4.11,4.11,0,0,1,4.88-3.67c6.28,1.22,17.17,4.44,19.57,12.31C477.18,25.83,477.86,39.23,459.68,64.65Z" fill="#f1b613"></path>
  <path d="M449,99.33l-.29,0c-.75-.13-17.46-3.31-16.2-12A6.76,6.76,0,0,1,434,84l8.87-10.73,5.75-16.08,3.57-40A4.61,4.61,0,0,1,457.71,13c6.38,1.24,17.47,4.54,19.94,12.66l0,.12c0,.55.49,13.86-17.58,39.13l-.39.54-.41-.53a10.78,10.78,0,0,1-.67-1c-1.2-2-3.22-5.73-3.21-9a.14.14,0,0,0-.07-.13.13.13,0,0,0-.12,0c-1.3.82-3.75,3.82,1.53,14.16l.05.2A4.86,4.86,0,0,1,455,73h0s-1.34,1.88-.88,7.26a38.25,38.25,0,0,1,.12,5.6c-.25,4.71-1,10.75-3.39,12.77A2.8,2.8,0,0,1,449,99.33Zm7.85-85.39a3.66,3.66,0,0,0-2.18.73,3.62,3.62,0,0,0-1.42,2.56l-3.61,40.22-5.89,16.37-8.92,10.79a5.86,5.86,0,0,0-1.33,2.85c-1.13,7.74,15.19,10.83,15.35,10.86a1.76,1.76,0,0,0,1.35-.48c1.62-1.39,2.7-5.68,3-12.07a39,39,0,0,0-.11-5.45c-.51-5.93,1.08-7.95,1.15-8a4.13,4.13,0,0,0,1.54-2.87c-5.38-10.6-3-14.17-1.11-15.35a1.09,1.09,0,0,1,1.13,0,1.14,1.14,0,0,1,.59,1c0,3.1,2.14,6.94,3.06,8.44l.21.32c16.84-23.75,17-36.91,17-37.88-2.36-7.57-13-10.7-19.16-11.9A4,4,0,0,0,456.83,13.94Z" fill="#231f20"></path>
  <path d="M449.56,54.13s10.8-.54,11.76,8.2l-1.64,2.32-10.53-7.37a13.3,13.3,0,0,1-4.64-3.94,5.48,5.48,0,0,0-5.89-2.09,7,7,0,0,0-4.23,4.11S428,69.58,419.07,62.2l-.13-6.29s6,3.46,11.36,0a10.4,10.4,0,0,0,3.28-3.63c1.59-2.81,6.39-9.74,12-3.34a9.71,9.71,0,0,1,1.7,2.9A3.43,3.43,0,0,0,449.56,54.13Z" fill="#1c1c1c"></path>
  <path d="M459.8,65.34l-10.94-7.65h0a13.56,13.56,0,0,1-4.75-4,5,5,0,0,0-5.34-1.91,6.58,6.58,0,0,0-3.93,3.85c-.14.31-3.59,7.8-9.07,9.06-2.35.55-4.71-.15-7-2.06l-.17-.14-.16-7.4.77.44c.06,0,5.83,3.26,10.84,0A10,10,0,0,0,433.15,52c1.22-2.16,3.79-5.85,7.18-6.2,1.93-.2,3.84.74,5.63,2.78a10,10,0,0,1,1.79,3,3,3,0,0,0,1.86,2c.95,0,11.25-.08,12.21,8.65l0,.19ZM440,50.54A6.18,6.18,0,0,1,444.9,53a13,13,0,0,0,4.45,3.79L459.56,64l1.24-1.75c-1-8-10.8-7.59-11.21-7.57h-.13A3.82,3.82,0,0,1,446.82,52a9,9,0,0,0-1.61-2.75c-1.57-1.79-3.17-2.6-4.78-2.44-3.05.31-5.5,4.09-6.42,5.7a10.81,10.81,0,0,1-3.43,3.79c-4.45,2.93-9.28,1.28-11.12.44l.11,5.24a6.88,6.88,0,0,0,6,1.71c5-1.15,8.36-8.44,8.39-8.51a7.57,7.57,0,0,1,4.55-4.39A5.56,5.56,0,0,1,440,50.54Z" fill="#231f20"></path>
  <path d="M453.66,55.18h-.06a.5.5,0,0,1-.43-.57l4.92-38.14a.49.49,0,0,1,.56-.43.5.5,0,0,1,.43.56l-4.92,38.14A.5.5,0,0,1,453.66,55.18Z" fill="#231f20"></path>
  <path d="M441.22,85.8a.64.64,0,0,1-.23,0,.51.51,0,0,1-.21-.68l6.28-12.3a.51.51,0,0,1,.68-.22.52.52,0,0,1,.22.68l-6.29,12.3A.51.51,0,0,1,441.22,85.8Z" fill="#231f20"></path>
  <path d="M444.62,95.36q-3.09,0-7.4-3.38c-.34-.38-1.72-2-1.14-3.18.32-.67,1.13-.94,2.44-.85.22,0,4.14.76,5.47,3.27a.51.51,0,0,1-.21.68.52.52,0,0,1-.68-.21c-1.1-2.08-4.67-2.74-4.7-2.75-1.15-.08-1.38.21-1.43.3-.19.4.42,1.43.94,2,4.22,3.3,6.75,3.37,8.11,2.85a2,2,0,0,0,1.11-2.58c-2.74-7.14-13.11-5.61-13.21-5.6a.5.5,0,1,1-.16-1c.12,0,11.28-1.65,14.3,6.23A3,3,0,0,1,446.38,95,4.91,4.91,0,0,1,444.62,95.36Z" fill="#231f20"></path>
  <path d="M671,181.27a4.78,4.78,0,0,1,1,2.62,1.17,1.17,0,0,1-2,.74c-1.3-1.25-3.68-4-3.76-7.21a1.61,1.61,0,0,1,1.76-1.63,19.15,19.15,0,0,1,8.54,2.92,1,1,0,0,1-.42,1.85,4.39,4.39,0,0,1-2.41-.66S675.39,183.45,671,181.27Z" fill="#1c1c1c"></path>
  <path d="M670.84,185.45a1.64,1.64,0,0,1-1.14-.46c-1.43-1.36-3.84-4.16-3.92-7.56a2.11,2.11,0,0,1,.69-1.59,2.06,2.06,0,0,1,1.62-.55,19.67,19.67,0,0,1,8.76,3,1.51,1.51,0,0,1,.67,1.65,1.47,1.47,0,0,1-1.32,1.12,4.85,4.85,0,0,1-1.66-.24,1.53,1.53,0,0,1-.36,1.31c-.41.4-1.06.46-2,.16a3.74,3.74,0,0,1,.32,1.63,1.63,1.63,0,0,1-1,1.42A1.69,1.69,0,0,1,670.84,185.45Zm-3-9.17a1,1,0,0,0-.74.29,1.13,1.13,0,0,0-.37.84c.07,3,2.29,5.6,3.61,6.86a.67.67,0,0,0,.7.14.65.65,0,0,0,.42-.56,4.13,4.13,0,0,0-.89-2.28l-1.32-1.72,1.94,1c1.87.93,2.23.61,2.24.59s0-.83-.18-1.3l-.75-1.64,1.48,1a4,4,0,0,0,2.1.57.44.44,0,0,0,.41-.36.49.49,0,0,0-.22-.56,18.69,18.69,0,0,0-8.29-2.85Z" fill="#231f20"></path>
  <path d="M197.18,239.92a4.71,4.71,0,0,1,1,2.63,1.16,1.16,0,0,1-2,.74c-1.31-1.25-3.69-4-3.76-7.21a1.61,1.61,0,0,1,1.76-1.63,19.22,19.22,0,0,1,8.54,2.92,1,1,0,0,1-.42,1.85,4.46,4.46,0,0,1-2.41-.66S201.56,242.11,197.18,239.92Z" fill="#1c1c1c"></path>
  <path d="M197,244.11a1.68,1.68,0,0,1-1.15-.46c-1.43-1.36-3.84-4.16-3.91-7.56a2.17,2.17,0,0,1,.68-1.6,2.13,2.13,0,0,1,1.63-.54,19.64,19.64,0,0,1,8.75,3,1.47,1.47,0,0,1,.67,1.64,1.45,1.45,0,0,1-1.32,1.13,4.69,4.69,0,0,1-1.66-.25,1.51,1.51,0,0,1-.36,1.32c-.41.4-1.06.46-2,.16a3.61,3.61,0,0,1,.33,1.63,1.64,1.64,0,0,1-1,1.42A1.87,1.87,0,0,1,197,244.11Zm-2.95-9.17a1.07,1.07,0,0,0-.75.29,1.12,1.12,0,0,0-.36.84c.07,3,2.29,5.6,3.6,6.86a.66.66,0,0,0,.71.13.61.61,0,0,0,.41-.55,4.2,4.2,0,0,0-.88-2.28l-1.33-1.72,1.95,1c1.86.93,2.22.61,2.24.59s0-.84-.19-1.3l-.76-1.65,1.5,1a3.79,3.79,0,0,0,2.09.58.46.46,0,0,0,.42-.36.5.5,0,0,0-.22-.56,18.68,18.68,0,0,0-8.3-2.85Z" fill="#231f20"></path>
  <path d="M561.22,201.38s-10.07,8.1-11.51,12.1a4.65,4.65,0,0,1-2.1,2.57l-3.66,2a17.54,17.54,0,0,0,2.86,0,12.57,12.57,0,0,1,2.74.09,79.81,79.81,0,0,1,10.16,1.95s5.34-.67,8.21-7.22a25.44,25.44,0,0,0,1.62-5.24S563.87,205.64,561.22,201.38Z" fill="#fff"></path>
  <path d="M559.66,220.58l-.1,0a77.9,77.9,0,0,0-10.08-1.94,12.15,12.15,0,0,0-2.63-.08,16.82,16.82,0,0,1-3,0l-1.52-.19,5-2.76a4.17,4.17,0,0,0,1.87-2.3c1.47-4.08,11.25-12,11.67-12.32l.44-.36.3.49c2.52,4.06,8,6,8.05,6l.36.13,0,.38a24.9,24.9,0,0,1-1.65,5.4c-3,6.74-8.38,7.49-8.61,7.52Zm-11.91-3.08a14.56,14.56,0,0,1,1.87.12,80.23,80.23,0,0,1,10.13,1.94c.75-.13,5.18-1.13,7.71-6.91a27.81,27.81,0,0,0,1.53-4.71c-1.29-.51-5.47-2.36-7.88-5.82-1.92,1.58-9.72,8.17-10.93,11.53a5.12,5.12,0,0,1-2.33,2.83l-2,1.1.92-.05C547.1,217.51,547.42,217.5,547.75,217.5Z" fill="#231f20"></path>
  <path d="M236.42,171.08c-.91,3.1-3.68,9.2-12.11,15.52a33.07,33.07,0,0,1,.23,8.13s8.58,8.22,16.32,7a6.17,6.17,0,0,0,4.16-2.77c2-3,7-9,14.6-6.73,0,0,8.88,8.87,4.83,16.82a10.47,10.47,0,0,1-5.46,4.88c-5.46,2.21-19.63,6.29-29.57-5.67l-5.11-5.58-7.67,4.65s-12.08-3.72-8.59-17.89A39.41,39.41,0,0,1,219.74,165a5.12,5.12,0,0,0,1.52-2.76c.5-2.68,2.23-8,8.1-9.31a11,11,0,0,1,5.7.34c4.33,1.37,12.27,5.62,9.69,18a18.5,18.5,0,0,0-5-2.12A2.77,2.77,0,0,0,236.42,171.08Z" fill="#fff"></path>
  <path d="M246.82,216.89A22.26,22.26,0,0,1,229,208.53l-4.82-5.26-7.51,4.55-.21-.06c-.13,0-12.49-4-8.94-18.49a40.19,40.19,0,0,1,11.84-24.6,4.65,4.65,0,0,0,1.37-2.49c.46-2.46,2.2-8.33,8.48-9.71a11.61,11.61,0,0,1,6,.35c3.92,1.25,12.74,5.55,10,18.55l-.14.71-.61-.39a18.69,18.69,0,0,0-4.89-2.06,2.29,2.29,0,0,0-2.7,1.59c-.91,3.11-3.68,9.25-12.05,15.6a33.52,33.52,0,0,1,.22,7.72c1.26,1.14,8.91,7.75,15.71,6.65a5.75,5.75,0,0,0,3.82-2.55c1.9-2.89,7.18-9.36,15.17-6.94l.12,0,.09.09c.37.38,9.08,9.23,4.92,17.41a11,11,0,0,1-5.72,5.12A33.89,33.89,0,0,1,246.82,216.89ZM224.4,202l5.39,5.88c9.71,11.69,23.52,7.77,29,5.55a10,10,0,0,0,5.21-4.64c3.63-7.13-3.77-15.23-4.65-16.16-7-2-11.73,3.23-13.92,6.56a6.78,6.78,0,0,1-4.49,3c-7.92,1.29-16.4-6.74-16.75-7.09l-.18-.17,0-.25a33.46,33.46,0,0,0-.23-8l0-.3.24-.18c8.33-6.24,11.05-12.24,11.93-15.26l.48.14-.48-.14a3.28,3.28,0,0,1,3.89-2.28,18.5,18.5,0,0,1,4.57,1.82c2-11.24-5-15.29-9.49-16.71a10.7,10.7,0,0,0-5.44-.32c-5.49,1.2-7.19,6.1-7.72,8.92a5.58,5.58,0,0,1-1.66,3,39.21,39.21,0,0,0-11.54,24c-3.13,12.78,6.43,16.75,8,17.32Z" fill="#231f20"></path>
  <path d="M230.07,187.31H230a1,1,0,0,1-.94-1c0-.17.26-4.21,5.17-7.62a1,1,0,0,1,1.14,1.65c-4.06,2.8-4.3,5.94-4.31,6.08A1,1,0,0,1,230.07,187.31Z" fill="#231f20"></path>
  <path d="M243.23,176.26a1,1,0,0,1-1-.72,1,1,0,0,1,.68-1.24,14.77,14.77,0,0,1,6.64-.2,1,1,0,0,1-.44,2,12.75,12.75,0,0,0-5.64.15A.92.92,0,0,1,243.23,176.26Z" fill="#231f20"></path>
  <path d="M234.11,190.14h0a.49.49,0,0,1-.47-.52,4.54,4.54,0,0,1,1.42-3,4.79,4.79,0,0,1,3.68-1,.5.5,0,0,1,.46.53.51.51,0,0,1-.54.46,3.86,3.86,0,0,0-2.94.77,3.65,3.65,0,0,0-1.09,2.27A.49.49,0,0,1,234.11,190.14Z" fill="#231f20"></path>
  <path d="M248.49,182.6a.49.49,0,0,1-.46-.32.5.5,0,0,1,.28-.65c.11,0,2.84-1.12,4.6-.34a.5.5,0,0,1,.25.66.49.49,0,0,1-.66.25c-1.13-.5-3.14.09-3.82.36A.41.41,0,0,1,248.49,182.6Z" fill="#231f20"></path>
  <path d="M248.49,192.42a.48.48,0,0,1-.42-.24.49.49,0,0,1,.16-.68l2.45-1.5.32-.53-.31.38-5-4a.5.5,0,0,1,.63-.78l5,4a1.12,1.12,0,0,1,.4.92,1.13,1.13,0,0,1-.52.86l-2.45,1.49A.48.48,0,0,1,248.49,192.42Z" fill="#231f20"></path>
  <path d="M249.62,198.51c.42-.48,2.78-2.92,8.22-3.42a.16.16,0,0,1,.16.11,18.7,18.7,0,0,1,.8,5.33,2.45,2.45,0,0,1-2.94,2.24,9.4,9.4,0,0,1-6.26-4.08A.15.15,0,0,1,249.62,198.51Z" fill="#fff"></path>
  <path d="M256.35,203.32a2.78,2.78,0,0,1-.58-.06,9.81,9.81,0,0,1-6.59-4.31.65.65,0,0,1,.06-.77h0c.44-.51,2.93-3.07,8.56-3.58a.63.63,0,0,1,.68.46,19,19,0,0,1,.82,5.5,2.91,2.91,0,0,1-1.13,2.13A3,3,0,0,1,256.35,203.32Zm-6.18-4.68a8.89,8.89,0,0,0,5.79,3.64,2,2,0,0,0,1.6-.38,1.9,1.9,0,0,0,.74-1.39,17.76,17.76,0,0,0-.7-4.89C253.08,196.1,250.86,198,250.17,198.64Zm-.18.2Zm7.9-3.25Z" fill="#231f20"></path>
  <ellipse cx="219.23" cy="203.04" rx="4.83" ry="7.75" transform="translate(-77.1 164.66) rotate(-35.43)" fill="#fff"></ellipse>
  <path d="M221.75,210.45a6,6,0,0,1-2.32-.51,11.81,11.81,0,0,1-6.66-9.36,4.63,4.63,0,0,1,1.68-4.26c2.39-1.71,6.49-.08,9.12,3.63h0c2.64,3.71,2.84,8.11.44,9.81A3.81,3.81,0,0,1,221.75,210.45Zm-5-13.83a2.88,2.88,0,0,0-1.71.51,3.69,3.69,0,0,0-1.26,3.39,10.79,10.79,0,0,0,6,8.5,3.68,3.68,0,0,0,3.61-.07c1.95-1.39,1.65-5.16-.67-8.42C221,198.09,218.64,196.62,216.74,196.62Z" fill="#231f20"></path>
  <path d="M276.15,273.74s2.51,16.67,8.8,26.24c0,0,19.79-22.83,16.38-33.59a9.6,9.6,0,0,0-1.31-7.86s2.36-7.74-3-9.84l3.31-17.36a2.52,2.52,0,0,0-2.11-3h0a2.51,2.51,0,0,0-2.7,1.6L289,247.25s-6.88-1.28-7.12,5.26a33.69,33.69,0,0,1-.37,4.14C280.79,261.36,279,270.57,276.15,273.74Z" fill="#fff"></path>
  <path d="M284.89,300.8l-.36-.55c-6.28-9.55-8.85-26.27-8.87-26.44l0-.23.16-.18c2.86-3.14,4.62-12.81,5.25-16.83a34.61,34.61,0,0,0,.36-4.07,5.82,5.82,0,0,1,2-4.55,7.47,7.47,0,0,1,5.28-1.25L295,229.8a3,3,0,0,1,5.77,1.63l-3.24,17c4.75,2.21,3.32,8.78,3,10.06a10.22,10.22,0,0,1,1.3,7.95c3.22,11-15.72,33-16.54,33.9Zm-8.21-26.91c.33,2,2.82,16.42,8.32,25.25,2.87-3.43,18.87-23.1,15.86-32.59l-.05-.17.05-.16a9.18,9.18,0,0,0-1.27-7.44l-.11-.19.06-.21c0-.07,2.16-7.32-2.72-9.23l-.38-.15,3.39-17.76a2,2,0,0,0-.34-1.54,2,2,0,0,0-3.51.46l-6.65,17.65-.42-.07s-3-.53-4.89,1a4.84,4.84,0,0,0-1.63,3.8,36.88,36.88,0,0,1-.37,4.2C281.24,261.73,279.52,270.52,276.68,273.89Z" fill="#231f20"></path>
  <path d="M286,255.62a.58.58,0,0,1-.18,0,.5.5,0,0,1-.29-.64l3-7.87a.5.5,0,0,1,.64-.29.5.5,0,0,1,.29.65l-3,7.86A.52.52,0,0,1,286,255.62Z" fill="#231f20"></path>
  <path d="M296.41,270.51l-.15,0a.51.51,0,0,1-.33-.63l3.61-11.49a.51.51,0,0,1,.63-.32.5.5,0,0,1,.33.63l-3.61,11.48A.5.5,0,0,1,296.41,270.51Z" fill="#231f20"></path>
  <path d="M298.73,274.93a.4.4,0,0,1-.15,0,.5.5,0,0,1-.32-.63l2.6-8a.5.5,0,0,1,.63-.32.5.5,0,0,1,.32.63l-2.6,8A.51.51,0,0,1,298.73,274.93Z" fill="#231f20"></path>
  <path d="M351.39,101.22l12.44-28s3.21-11.81,9-7.58a24.85,24.85,0,0,0,7.58,2.19s1.67,4.75-8.35,4.75c0,0,3.79,1.54,3,11.66A19.22,19.22,0,0,0,375,87l.8,11.7-8.86,23.77A119,119,0,0,0,351.39,101.22Z" fill="#fff"></path>
  <path d="M367,123.71l-.52-1A120.11,120.11,0,0,0,351,101.56l-.22-.25L363.38,73c.05-.23,2-7.27,5.76-8.58a4.14,4.14,0,0,1,4,.8h0a24.9,24.9,0,0,0,7.32,2.09l.33,0,.1.31a3.27,3.27,0,0,1-.48,2.84c-1.08,1.53-3.43,2.38-7,2.55,1.15,1.33,2.67,4.41,2.11,11.23a18.23,18.23,0,0,0,0,2.76l.8,11.82Zm-15-22.58a124.3,124.3,0,0,1,14.84,20.18l8.45-22.65-.79-11.6a20.26,20.26,0,0,1,0-2.91c.78-9.53-2.62-11.14-2.65-11.16l-2.17-1h2.36c4.93,0,6.8-1.16,7.51-2.14a2.28,2.28,0,0,0,.43-1.64,25.9,25.9,0,0,1-7.38-2.2,3.3,3.3,0,0,0-3.14-.72c-3.26,1.14-5.14,7.91-5.15,8Z" fill="#231f20"></path>
  <path d="M355.07,88.38l1.48,7.69s11.66-3.49,10.26-16.55c0,0-1.72-8.86,1-13.81A3.48,3.48,0,0,1,372,64.14a14.19,14.19,0,0,0,6.76.85l3.1-4s-9.86-4-16.7,3.88c0,0-3.2,3.38-2.21,11.12a11.34,11.34,0,0,1-6.63,12A13.45,13.45,0,0,1,355.07,88.38Z" fill="#1c1c1c"></path>
  <path d="M356.16,96.71,354.5,88l.42-.14a12.41,12.41,0,0,0,1.22-.44A10.88,10.88,0,0,0,362.47,76c-1-7.88,2.21-11.37,2.34-11.52,7-8.09,17.16-4,17.26-4l.61.24-3.63,4.72-.19,0a14.61,14.61,0,0,1-7-.87A3,3,0,0,0,368.21,66c-2.56,4.73-.93,13.39-.91,13.48,1.43,13.35-10.48,17.09-10.61,17.12Zm-.51-8,1.28,6.69c2.24-.85,10.57-4.78,9.38-15.83-.06-.33-1.71-9.06,1-14.11a4,4,0,0,1,4.86-1.81,13.93,13.93,0,0,0,6.31.87l2.57-3.34c-2.24-.72-9.89-2.55-15.51,4-.05,0-3,3.35-2.1,10.72a11.87,11.87,0,0,1-6.93,12.5C356.25,88.5,356,88.61,355.65,88.72Z" fill="#231f20"></path>
  <path d="M385,50.05l8.31-6.16a2.73,2.73,0,0,1,4.06,1h0a2.74,2.74,0,0,1-.48,3.11L386.78,58.5a1.22,1.22,0,0,0,.63,2c1.73.36,3.49,1.58,2.17,5.34a.86.86,0,0,0,.18.85,5,5,0,0,1,.42,6.75.91.91,0,0,0-.08,1c.68,1.24,1.94,4.37-1.09,6.79a2.56,2.56,0,0,1-1.8-2.44s-9.25,3-6.94-3.85a6.36,6.36,0,0,1-.77-8.22s-3.72-3.21,4.88-7.32Z" fill="#fff"></path>
  <path d="M389.12,81.82l-.25-.07a3.11,3.11,0,0,1-2.1-2.28c-1.42.37-5,1.1-6.61-.52-.82-.84-1-2.14-.45-3.85a6.81,6.81,0,0,1-.83-8.3,3,3,0,0,1-.65-2.3c.25-1.86,2.16-3.67,5.68-5.39l.63-9.32,8.5-6.3a3.22,3.22,0,0,1,4.24,4.83L387.14,58.85a.72.72,0,0,0,.37,1.19,3.62,3.62,0,0,1,2.6,1.7c.59,1,.57,2.5-.06,4.29a.34.34,0,0,0,.08.35,5.47,5.47,0,0,1,.44,7.39.43.43,0,0,0,0,.46c.74,1.35,2.1,4.77-1.22,7.43Zm-1.41-3.68v.68a2,2,0,0,0,1.2,1.87c2.36-2.07,1.5-4.62.76-6a1.43,1.43,0,0,1,.11-1.56,4.46,4.46,0,0,0-.39-6.1,1.33,1.33,0,0,1-.28-1.36,4.34,4.34,0,0,0,.13-3.47A2.71,2.71,0,0,0,387.31,61a1.71,1.71,0,0,1-.89-2.86l10.14-10.52a2.23,2.23,0,0,0-1.08-3.71,2.19,2.19,0,0,0-1.85.38l-8.12,6-.65,9.44-.26.12c-4.19,2-5.24,3.69-5.38,4.76a2,2,0,0,0,.61,1.73l.33.29-.24.37a5.82,5.82,0,0,0,.7,7.58l.23.22-.1.3c-.5,1.47-.46,2.52.13,3.12,1.26,1.29,4.89.51,6.18.1Z" fill="#231f20"></path>
  <path d="M386.65,68.29a19.9,19.9,0,0,1-7.34-1.08.5.5,0,1,1,.39-.92,20.67,20.67,0,0,0,7.75,1h0a.5.5,0,0,1,.5.49.52.52,0,0,1-.49.51Z" fill="#231f20"></path>
  <path d="M380.27,75.47a.5.5,0,0,1,0-1,26,26,0,0,0,7.67-1.25.5.5,0,0,1,.64.29.52.52,0,0,1-.3.65A26.51,26.51,0,0,1,380.27,75.47Z" fill="#231f20"></path>
  <path d="M466.45,101.45c-6,2.74-13.77,17.26-13.77,17.26l-3.94-19.9c3.71.37,4.71-8,5-13a40.81,40.81,0,0,0-.11-5.53c-.5-5.79,1-7.67,1-7.67a4.4,4.4,0,0,0,1.65-3.31c-5.36-10.5-3-13.8-1.35-14.81a.63.63,0,0,1,1,.55c0,3.12,2,6.84,3.14,8.71a10.59,10.59,0,0,0,.63.91,12.67,12.67,0,0,0,.84,1c2.31,2.49,2.31,4.5,2.31,4.5l-.2,17.4C462.93,93.63,466.45,101.45,466.45,101.45Z" fill="#fff"></path>
  <path d="M452.46,120.18l-4.34-21.93.67.07a1.78,1.78,0,0,0,1.39-.48c1.62-1.39,2.7-5.68,3-12.07a39,39,0,0,0-.11-5.45c-.51-5.93,1.08-7.95,1.15-8a4.13,4.13,0,0,0,1.54-2.87c-5.38-10.6-3-14.17-1.11-15.35a1.09,1.09,0,0,1,1.13,0,1.14,1.14,0,0,1,.59,1c0,3.1,2.14,6.94,3.06,8.44a10.45,10.45,0,0,0,.61.87c.25.32.52.64.8.94,2.42,2.6,2.45,4.75,2.45,4.84l-.2,17.41c.3,5.91,3.74,13.64,3.77,13.71l.21.46-.46.2c-5.79,2.64-13.45,16.9-13.53,17ZM449.35,99.3l3.55,18c2-3.48,7.86-13.36,12.9-16.06-.75-1.75-3.4-8.29-3.67-13.66l.2-17.44A7.06,7.06,0,0,0,460.15,66c-.3-.32-.59-.66-.86-1a10.78,10.78,0,0,1-.67-1c-1.2-2-3.22-5.73-3.21-9a.14.14,0,0,0-.07-.13.13.13,0,0,0-.12,0c-1.3.82-3.75,3.82,1.53,14.16l.05.2A4.86,4.86,0,0,1,455,73h0s-1.34,1.88-.88,7.26a38.25,38.25,0,0,1,.12,5.6c-.25,4.71-1,10.75-3.39,12.77A2.82,2.82,0,0,1,449.35,99.3Z" fill="#231f20"></path>
  <path d="M446.42,60.78s-1-2.14.65-3.29a2.64,2.64,0,0,1,2.65-.15,13.49,13.49,0,0,1,4.37,3.17,1.66,1.66,0,0,1-.69,2.62,6.14,6.14,0,0,1-1.8.35s.87,2.27-1.83,2.92c0,0,1.18,3.34-1.08,4.42,0,0-.11,2.7-3.68,2.49a2,2,0,0,0-1.66.19.91.91,0,0,1-1.39-.59A4.55,4.55,0,0,1,443,69s-1.4-5.29,1.84-5.73A2,2,0,0,1,446.42,60.78Z" fill="#fff"></path>
  <path d="M442.86,74.15a1.37,1.37,0,0,1-.52-.1,1.39,1.39,0,0,1-.87-1,5,5,0,0,1,.95-4.14c-.18-.82-.64-3.4.39-4.94a2.58,2.58,0,0,1,1.43-1.06,2.55,2.55,0,0,1,.36-1.49,2.24,2.24,0,0,1,1.17-.93,3,3,0,0,1,1-3.37,3.14,3.14,0,0,1,3.14-.19,13.72,13.72,0,0,1,4.55,3.3,2.16,2.16,0,0,1-.9,3.41,5.75,5.75,0,0,1-1.37.32,2.6,2.6,0,0,1-.26,1.55,2.68,2.68,0,0,1-1.56,1.26c.34,1.35.38,3.45-1.24,4.41a3.24,3.24,0,0,1-1,1.77,4.24,4.24,0,0,1-3.19.9l-.12,0a1.59,1.59,0,0,0-1.22.13A1.36,1.36,0,0,1,442.86,74.15Zm5.63-16.59a2,2,0,0,0-1.13.34c-1.28.89-.52,2.6-.49,2.67l.27.58-.62.12a1.57,1.57,0,0,0-1.07.63,1.8,1.8,0,0,0-.17,1.24l.14.54-.55.08a1.64,1.64,0,0,0-1.23.73c-.79,1.18-.41,3.56-.19,4.37l.06.25-.17.2a4,4,0,0,0-.89,3.5.41.41,0,0,0,.26.31.35.35,0,0,0,.35,0,2.55,2.55,0,0,1,2-.28,3.17,3.17,0,0,0,2.4-.65,2.15,2.15,0,0,0,.69-1.36v-.3l.27-.13c1.83-.87.84-3.78.82-3.81l-.18-.52.54-.13a2,2,0,0,0,1.42-.91,1.84,1.84,0,0,0,.07-1.34l-.25-.63.68-.05a5.75,5.75,0,0,0,1.66-.32,1.16,1.16,0,0,0,.71-.78,1.19,1.19,0,0,0-.23-1.06,13,13,0,0,0-4.21-3A2.4,2.4,0,0,0,448.49,57.56Z" fill="#231f20"></path>
  <line x1="451.6" y1="63.48" x2="446.42" y2="60.78" fill="#fff"></line>
  <rect x="448.51" y="59.21" width="1" height="5.84" transform="translate(186.47 431.65) rotate(-62.48)" fill="#231f20"></rect>
  <line x1="449.77" y1="66.4" x2="444.8" y2="63.26" fill="#fff"></line>
  <rect x="446.78" y="61.89" width="1" height="5.87" transform="translate(153.86 408.58) rotate(-57.76)" fill="#231f20"></rect>
  <line x1="448.69" y1="70.82" x2="442.96" y2="68.99" fill="#fff"></line>
  <rect x="445.32" y="66.9" width="1" height="6.01" transform="translate(243.11 473.08) rotate(-72.22)" fill="#231f20"></rect>
  <rect x="562.3" y="163.75" width="31.05" height="45.52" rx="15.52" transform="translate(170.67 -263.93) rotate(30)" fill="#fff"></rect>
  <path d="M574.18,208.8a15.91,15.91,0,0,1-8-2.14h0a16,16,0,0,1-5.87-21.89l7.24-12.54a16,16,0,0,1,27.75,16l-7.24,12.53A16,16,0,0,1,574.18,208.8Zm-7.48-3a15,15,0,0,0,20.52-5.5l7.24-12.53a15,15,0,0,0-26-15l-7.23,12.54a15,15,0,0,0,5.5,20.52Z" fill="#231f20"></path>
  <path d="M566.05,175.89s6.07-9.42,13.9-10.22a10.29,10.29,0,0,0,7.83,5.43A26,26,0,0,0,593,180a4.73,4.73,0,0,1,1.27,3.42l-.23,5.72.21,5.75S577.5,220,593,230.62l17.92,15.9,12.31,14.22s4.47-5.43.16-15.18c0,0-1.44-4.31,1.92-9.91,0,0,7.24-17.75-3.59-34.6a6.17,6.17,0,0,1-.87-4.43c1.29-7.28,3.65-28.23-12.48-26.64,0,0-11.19-30.2-22.21-15.18C586.18,154.8,561.41,145.37,566.05,175.89Z" fill="#fff"></path>
  <path d="M623.26,261.51l-12.69-14.66L592.69,231c-15.1-10.33-.28-34.18,1-36.22l-.21-5.6.23-5.75a4.23,4.23,0,0,0-1.14-3.06,26.21,26.21,0,0,1-5.2-8.8,10.71,10.71,0,0,1-7.74-5.36c-7.34,1-13.14,9.87-13.2,10l-.71,1.12-.2-1.31c-1.52-10-.07-16.86,4.31-20.39,5.68-4.58,14.26-2,16.14-1.37,2.33-3.06,4.88-4.41,7.56-4,7.82,1.1,14.14,16.63,15.16,19.28,4.07-.31,7.27.77,9.54,3.23,5.58,6,4,18.81,3.1,24a5.61,5.61,0,0,0,.8,4.06c10.85,16.89,3.7,34.89,3.63,35.07-3.22,5.38-1.92,9.52-1.91,9.56,4.37,9.87-.06,15.43-.25,15.66Zm-43-96.38.15.33a9.88,9.88,0,0,0,7.43,5.14l.33,0,.09.31a25.82,25.82,0,0,0,5.08,8.73,5.23,5.23,0,0,1,1.41,3.78l-.23,5.72.22,5.87-.09.13c-.17.25-16.27,24.8-1.33,35l18,15.93,11.92,13.78c.91-1.53,3.15-6.47-.25-14.16-.08-.23-1.49-4.64,1.95-10.36,0-.11,7-17.65-3.58-34.08a6.7,6.7,0,0,1-1-4.79c.91-5.06,2.43-17.47-2.84-23.17-2.12-2.3-5.18-3.26-9.09-2.88l-.39,0-.13-.36c-.07-.18-6.72-17.91-14.49-19-2.39-.32-4.69,1-6.85,3.94l-.22.3-.36-.13c-.1,0-9.7-3.61-15.51,1.09-3.9,3.15-5.29,9.27-4.13,18.21,1.87-2.53,7.07-8.74,13.54-9.4Z" fill="#231f20"></path>
  <path d="M588.35,180.91a1,1,0,0,1-.85-.48,17.12,17.12,0,0,0-5-5,1,1,0,0,1-.34-1.37,1,1,0,0,1,1.37-.34,18.67,18.67,0,0,1,5.66,5.65,1,1,0,0,1-.32,1.38A1,1,0,0,1,588.35,180.91Z" fill="#231f20"></path>
  <ellipse cx="582.52" cy="182.66" rx="1.84" ry="1.51" transform="translate(281.54 713.79) rotate(-77.87)" fill="#231f20"></ellipse>
  <ellipse cx="566.46" cy="179.26" rx="1.84" ry="1.51" transform="translate(272.17 695.41) rotate(-77.87)" fill="#231f20"></ellipse>
  <path d="M567.15,174.85a1,1,0,0,1-.22-2c4.2-1,6.38-.23,6.62-.14a1,1,0,0,1,.6,1.28,1,1,0,0,1-1.28.6s-1.9-.6-5.5.21A.83.83,0,0,1,567.15,174.85Z" fill="#231f20"></path>
  <path d="M571.1,187.2l-.15,0-2.14-.66a1.29,1.29,0,0,1-.86-.88,1.26,1.26,0,0,1,.27-1.19l4.89-5.52a.5.5,0,0,1,.75.66L569,185.11a.29.29,0,0,0-.06.26.27.27,0,0,0,.19.19l2.14.66a.5.5,0,0,1-.14,1Z" fill="#231f20"></path>
  <path d="M564,188.81a45.72,45.72,0,0,0,11.75,2.38S566.14,202.67,564,188.81Z" fill="#fff"></path>
  <path d="M568.69,196.15a3.67,3.67,0,0,1-1-.14c-2.1-.59-3.48-3-4.11-7.13l-.14-.86.81.32a45.74,45.74,0,0,0,11.61,2.36l1,.08-.62.74C576,191.72,572.22,196.15,568.69,196.15Zm-4-6.59c.6,3.21,1.69,5.05,3.25,5.49,2.42.68,5.48-2.09,6.81-3.45A48.56,48.56,0,0,1,564.67,189.56Z" fill="#231f20"></path>
  <ellipse cx="596.86" cy="192.27" rx="5.51" ry="5.99" fill="#fff"></ellipse>
  <path d="M596.86,198.76a6.51,6.51,0,1,1,6-6.49A6.27,6.27,0,0,1,596.86,198.76Zm0-12a5.51,5.51,0,1,0,5,5.49A5.27,5.27,0,0,0,596.86,186.78Z" fill="#231f20"></path>
  <path d="M603.16,239.62c-16.58,13.57-47.75,32.42-53.95,36.14a1.62,1.62,0,0,1-.77.21,1.41,1.41,0,0,1-.6-.13,1.49,1.49,0,0,1-.86-1.06c-3.72-18.4-1.23-48.13-.41-56.54a10.27,10.27,0,0,0,1.65-.2c-.77,7.79-3.36,37.74.32,56.22,6.53-3.92,37-22.37,53.38-35.73Z" fill="#f3c259"></path>
  <path d="M597.52,234.62c-14.47,11.93-38.31,24.93-43.06,27.47a1.46,1.46,0,0,1-.7.18,1.39,1.39,0,0,1-.69-.18,1.46,1.46,0,0,1-.79-1.15c-1.27-11.67.67-34.84,1.36-42.28.52.09,1.06.2,1.61.31-.7,7.52-2.58,30.07-1.38,41.59,5.1-2.74,28.24-15.39,42.42-27Z" fill="#f3c259"></path>
</svg>
