<svg xmlns="http://www.w3.org/2000/svg" xmlns:xlink="http://www.w3.org/1999/xlink" width="500" zoomAndPan="magnify" viewBox="0 0 375 374.999991" height="500" preserveAspectRatio="xMidYMid meet" version="1.0"><defs><clipPath id="ce954f4830"><path d="M 32.109375 40.121094 L 342.609375 40.121094 L 342.609375 374.476562 L 32.109375 374.476562 Z M 32.109375 40.121094 " clip-rule="nonzero"/></clipPath></defs><path fill="#65cae1" d="M 47.6875 358.898438 L 327.363281 358.898438 L 327.363281 55.957031 L 47.6875 55.957031 L 47.6875 358.898438 " fill-opacity="1" fill-rule="evenodd"/><path fill="#ffffff" d="M 112.6875 202.730469 L 132.757812 207.015625 L 270.410156 302.640625 L 273.210938 312.160156 L 263.308594 316.839844 L 234.265625 296.578125 L 143.371094 237.21875 L 117.109375 216.417969 L 112.6875 202.730469 " fill-opacity="1" fill-rule="evenodd"/><path fill="#ffde59" d="M 187.523438 0.566406 C 173.765625 0.566406 160.964844 2.574219 150.554688 5.964844 C 141.078125 9.054688 133.378906 13.429688 128.386719 18.664062 L 97.035156 18.664062 C 92.734375 18.664062 89.246094 22.148438 89.246094 26.453125 L 89.246094 69.886719 C 89.246094 74.1875 92.734375 77.675781 97.035156 77.675781 L 278.011719 77.675781 C 282.316406 77.675781 285.804688 74.1875 285.804688 69.886719 L 285.804688 26.453125 C 285.804688 22.148438 282.316406 18.664062 278.011719 18.664062 L 246.65625 18.664062 C 241.667969 13.429688 233.972656 9.054688 224.492188 5.964844 C 214.085938 2.574219 201.285156 0.566406 187.523438 0.566406 " fill-opacity="1" fill-rule="evenodd"/><g clip-path="url(#ce954f4830)"><path fill="#000000" d="M 278.011719 40.378906 C 273.710938 40.378906 270.222656 43.867188 270.222656 48.167969 C 270.222656 52.472656 273.710938 55.957031 278.011719 55.957031 L 327.363281 55.957031 L 327.363281 358.898438 L 47.6875 358.898438 L 47.6875 55.957031 L 97.035156 55.957031 C 101.339844 55.957031 104.824219 52.472656 104.824219 48.167969 C 104.824219 43.867188 101.339844 40.378906 97.035156 40.378906 L 39.898438 40.378906 C 35.597656 40.378906 32.109375 43.867188 32.109375 48.167969 L 32.109375 366.6875 C 32.109375 370.988281 35.597656 374.476562 39.898438 374.476562 L 335.152344 374.476562 C 339.453125 374.476562 342.941406 370.988281 342.941406 366.6875 L 342.941406 48.167969 C 342.941406 43.867188 339.453125 40.378906 335.152344 40.378906 L 278.011719 40.378906 " fill-opacity="1" fill-rule="nonzero"/></g><path fill="#000000" d="M 97.035156 18.664062 L 128.386719 18.664062 C 133.378906 13.429688 141.078125 9.054688 150.554688 5.964844 C 160.964844 2.574219 173.765625 0.566406 187.523438 0.566406 C 201.285156 0.566406 214.085938 2.574219 224.492188 5.964844 C 233.972656 9.054688 241.667969 13.429688 246.65625 18.664062 L 278.011719 18.664062 C 282.316406 18.664062 285.804688 22.148438 285.804688 26.453125 L 285.804688 69.886719 C 285.804688 74.1875 282.316406 77.675781 278.011719 77.675781 L 97.035156 77.675781 C 92.734375 77.675781 89.246094 74.1875 89.246094 69.886719 L 89.246094 26.453125 C 89.246094 22.148438 92.734375 18.664062 97.035156 18.664062 Z M 132.015625 34.242188 L 104.824219 34.242188 L 104.824219 62.097656 L 270.222656 62.097656 L 270.222656 34.242188 L 243.101562 34.242188 C 240.589844 34.261719 238.113281 33.070312 236.59375 30.835938 L 243.03125 26.453125 L 236.613281 30.804688 C 234.007812 26.972656 227.972656 23.457031 219.6875 20.753906 C 210.800781 17.859375 199.679688 16.144531 187.523438 16.144531 C 175.371094 16.144531 164.246094 17.859375 155.363281 20.753906 C 147.398438 23.351562 141.515625 26.699219 138.757812 30.355469 C 137.410156 32.675781 134.894531 34.242188 132.015625 34.242188 " fill-opacity="1" fill-rule="nonzero"/><path fill="#000000" d="M 105.226562 193.386719 C 103.46875 192.164062 101.050781 192.59375 99.820312 194.347656 C 98.597656 196.101562 99.023438 198.523438 100.78125 199.746094 L 110.121094 206.285156 C 111.878906 207.511719 114.296875 207.085938 115.523438 205.328125 C 116.746094 203.570312 116.320312 201.152344 114.566406 199.925781 L 105.226562 193.386719 " fill-opacity="1" fill-rule="nonzero"/><path fill="#000000" d="M 208.257812 288.839844 C 206.5 287.609375 204.085938 288.042969 202.855469 289.796875 C 201.632812 291.554688 202.058594 293.972656 203.816406 295.199219 L 255.035156 331.050781 C 256.789062 332.277344 259.207031 331.847656 260.433594 330.09375 C 261.65625 328.335938 261.230469 325.917969 259.476562 324.691406 L 208.257812 288.839844 " fill-opacity="1" fill-rule="nonzero"/><path fill="#000000" d="M 240.417969 316.089844 C 239.1875 317.847656 239.621094 320.261719 241.375 321.492188 C 243.132812 322.714844 245.546875 322.289062 246.777344 320.53125 L 261.519531 299.46875 C 262.746094 297.710938 262.320312 295.292969 260.558594 294.066406 C 258.804688 292.839844 256.386719 293.269531 255.160156 295.023438 L 240.417969 316.089844 " fill-opacity="1" fill-rule="nonzero"/><path fill="#000000" d="M 123 220.957031 C 121.777344 222.710938 122.203125 225.132812 123.957031 226.355469 C 125.714844 227.585938 128.136719 227.15625 129.359375 225.402344 L 139.117188 211.460938 C 140.347656 209.703125 139.917969 207.285156 138.160156 206.058594 C 136.402344 204.832031 133.988281 205.257812 132.757812 207.015625 L 123 220.957031 " fill-opacity="1" fill-rule="nonzero"/><path fill="#000000" d="M 154.65625 243.117188 C 153.433594 244.871094 153.859375 247.289062 155.617188 248.515625 C 157.371094 249.746094 159.792969 249.3125 161.015625 247.558594 L 170.773438 233.621094 C 172.003906 231.859375 171.570312 229.445312 169.816406 228.214844 C 168.0625 226.992188 165.644531 227.417969 164.414062 229.175781 L 154.65625 243.117188 " fill-opacity="1" fill-rule="nonzero"/><path fill="#000000" d="M 93.417969 125.492188 C 89.117188 125.492188 85.625 128.980469 85.625 133.285156 C 85.625 137.585938 89.117188 141.074219 93.417969 141.074219 L 230.960938 141.074219 C 235.257812 141.074219 238.75 137.585938 238.75 133.285156 C 238.75 128.980469 235.257812 125.492188 230.960938 125.492188 L 93.417969 125.492188 " fill-opacity="1" fill-rule="nonzero"/><path fill="#000000" d="M 93.417969 154.433594 C 89.117188 154.433594 85.625 157.921875 85.625 162.222656 C 85.625 166.523438 89.117188 170.011719 93.417969 170.011719 L 202 170.011719 C 206.304688 170.011719 209.792969 166.523438 209.792969 162.222656 C 209.792969 157.921875 206.304688 154.433594 202 154.433594 L 93.417969 154.433594 " fill-opacity="1" fill-rule="nonzero"/><path fill="#000000" d="M 281.839844 160.089844 L 269.121094 160.089844 C 269.085938 158.253906 269.070312 157.148438 269.070312 156.738281 C 269.070312 152.617188 269.753906 149.226562 271.117188 146.570312 C 272.476562 143.898438 275.21875 140.917969 279.304688 137.582031 C 283.390625 134.261719 285.84375 132.082031 286.628906 131.039062 C 287.871094 129.425781 288.484375 127.617188 288.484375 125.660156 C 288.484375 122.9375 287.394531 120.605469 285.210938 118.644531 C 283.035156 116.707031 280.105469 115.734375 276.410156 115.734375 C 272.851562 115.734375 269.871094 116.753906 267.46875 118.78125 C 265.085938 120.808594 263.433594 123.910156 262.535156 128.0625 L 249.675781 126.460938 C 250.03125 120.5 252.570312 115.445312 257.269531 111.289062 C 261.988281 107.132812 268.152344 105.058594 275.816406 105.058594 C 283.851562 105.058594 290.257812 107.167969 295.023438 111.371094 C 299.773438 115.582031 302.160156 120.464844 302.160156 126.066406 C 302.160156 129.152344 301.269531 132.082031 299.535156 134.839844 C 297.78125 137.597656 294.050781 141.363281 288.332031 146.113281 C 285.367188 148.582031 283.527344 150.558594 282.8125 152.054688 C 282.097656 153.554688 281.773438 156.226562 281.839844 160.089844 Z M 269.121094 178.941406 L 269.121094 164.929688 L 283.136719 164.929688 L 283.136719 178.941406 L 269.121094 178.941406 " fill-opacity="1" fill-rule="nonzero"/><path fill="#000000" d="M 264.34375 294.378906 L 134.960938 203.8125 L 134.96875 203.800781 C 134.226562 203.277344 133.359375 203.054688 132.515625 203.105469 L 126.515625 202.9375 L 112.597656 198.273438 L 112.605469 198.261719 C 110.5625 197.582031 108.355469 198.679688 107.671875 200.71875 C 107.210938 202.089844 107.558594 203.535156 108.457031 204.546875 L 117.109375 216.414062 L 119.335938 222.316406 C 119.667969 223.191406 120.285156 223.878906 121.042969 224.3125 L 250.589844 314.992188 C 256.359375 319.03125 268.894531 324.996094 274.386719 316.769531 C 275.535156 315.050781 276.0625 312.972656 275.910156 310.683594 C 275.585938 305.878906 272.011719 299.746094 264.34375 294.378906 Z M 131.46875 210.835938 L 259.898438 300.738281 C 271.15625 308.613281 272.386719 320.785156 255.035156 308.632812 L 126.191406 218.449219 L 121.664062 209.503906 L 131.46875 210.835938 " fill-opacity="1" fill-rule="evenodd"/></svg>